<?xml version="1.0" encoding="utf-8"?>
<!-- Generator: Adobe Illustrator 22.0.0, SVG Export Plug-In . SVG Version: 6.00 Build 0)  -->
<svg version="1.1" id="background" xmlns="http://www.w3.org/2000/svg" xmlns:xlink="http://www.w3.org/1999/xlink" x="0px" y="0px"
	 viewBox="0 0 600 325.7" style="enable-background:new 0 0 600 325.7;" xml:space="preserve">
<style type="text/css">
	.st0{fill:none;}
	.st1{fill:#FFFFFF;}
	.st2{fill:#EE6F27;}
	.st3{enable-background:new    ;}
	.st4{display:none;}
	.st5{display:inline;fill:#FFFFFF;}
	.st6{fill:none;stroke:#F26E24;stroke-width:6;stroke-miterlimit:10;}
	.st7{fill:none;stroke:#F79520;stroke-width:6;stroke-miterlimit:10;}
	.st8{fill:#ED4523;}
	.st9{fill:#BA2025;}
</style>
<g>
	<path class="st0" d="M225.9,189.9c0-50.3,0-100.6,0-150.9c50.3,0,100.6,0,150.9,0c0,50.3,0,100.6,0,150.9
		C326.5,189.9,276.2,189.9,225.9,189.9z M280.2,60.3c-0.1,0-0.2,0-0.2,0.1c-0.2,0-0.4,0.1-0.5,0.2c-9,3.1-15.9,11.6-15.9,22.2
		c0,8.5,0,16.9,0,25.4c0,2.3,0,4.7,0,7c0,2.8,1.8,5.2,4.5,6c0.6,0.2,1.3,0.2,2,0.3c0,0.2,0,0.4,0,0.6c0,6.4,0,12.8,0,19.2
		c0,1.1,0.1,2.2,0.3,3.2c1.3,5.6,4.6,9.5,10,11.6c1.8,0.7,3.7,0.9,5.6,0.9c5.2,0,10.3,0,15.5,0c0,1.9,0,3.7,0,5.6
		c0,0.2-0.1,0.5,0.3,0.5s0.4,0,0.4-0.4c0-1.9,0-3.8,0-5.6c5.1,0,10.2,0,15.2,0c1.3,0,2.6-0.1,3.8-0.4c7.1-1.6,12.1-8,12.1-15.2
		c0-6.4,0-12.9,0-19.3c0-0.1,0-0.3,0-0.4c0-0.2,0.1-0.3,0.3-0.3c0.4,0,0.7,0,1.1-0.1c3.3-0.7,5-3.6,5-6.2c0-10.9,0-21.7,0-32.6
		c0-1.4-0.1-2.8-0.4-4.1c-1.4-6.8-5-12-10.8-15.7c-1.6-1-3.3-1.8-5.2-2.3c-0.1,0-0.2-0.1-0.3-0.1c-1.9-0.5-3.7-0.9-5.7-1
		c-0.3-0.1-0.7-0.1-1-0.1c-4.5,0-9,0-13.4,0c-0.1,0-0.3,0-0.4,0c-0.3,0-0.4-0.1-0.4-0.4c0-0.1,0-0.3,0-0.4c0-1.3,0-2.6,0-4
		c0-0.4,0-0.4-0.4-0.4c-0.3,0-0.3,0.2-0.3,0.4c0,1.4,0,2.8,0,4.1c0,0.7,0.1,0.6-0.6,0.6c-0.1,0-0.2,0-0.3,0c-4.5,0-9.1,0-13.6,0
		c-0.4,0-0.7,0-1.1,0.1c-0.6,0-1.2,0.1-1.8,0.1C282.7,59.6,281.4,59.9,280.2,60.3z M305.8,45.7c-0.3,0-0.6,0-0.8-0.1
		c-0.3,0-0.3,0.1-0.3,0.3c0,0.3,0.2,0.3,0.4,0.3c2.3,0.1,4.6,0.4,6.8,0.8c3.7,0.6,7.4,1.6,11,2.9c18.1,6.6,32,21.2,37.9,39.5
		c1.4,4.4,2.3,9,2.7,13.6c0.1,0.6,0.1,1.3,0.1,1.9c0,0.3,0.2,0.3,0.4,0.3c0.3,0,0.2-0.2,0.2-0.3c0-0.2,0-0.3,0-0.5
		c-0.2-2.6-0.5-5.3-1-7.9c-1.1-5.8-2.9-11.3-5.6-16.5c-7.8-15.2-19.9-25.7-36-31.3C316.4,47,311.2,46.1,305.8,45.7z M239.7,105.3
		c0-0.3,0.1-0.7,0.1-1c0.1-2.4,0.4-4.7,0.8-7.1c1.1-6,3-11.7,5.8-17.1c6.4-12.4,15.9-21.7,28.5-27.8c7.2-3.5,14.9-5.4,23-6
		c0.4,0,0.4,0,0.4-0.3c0-0.4-0.2-0.3-0.4-0.3c-2.1,0.1-4.2,0.4-6.3,0.7c-3.5,0.6-6.9,1.4-10.2,2.5c-14.9,5.2-26.3,14.7-34.2,28.3
		c-3.4,5.8-5.7,12.1-7,18.7c-0.4,2.2-0.7,4.4-1,6.7c-0.1,0.8-0.1,1.6-0.2,2.4c0,0.3,0.1,0.4,0.4,0.3
		C239.5,105.3,239.6,105.3,239.7,105.3z M304.7,170c-0.1,0.6-0.1,0.6,0.4,0.6h0.1c2-0.1,4-0.3,6-0.6c3.5-0.5,7-1.4,10.4-2.5
		c11.3-3.9,20.7-10.4,28.3-19.6c5.7-7,9.7-14.8,12.1-23.5c0.8-2.9,1.3-5.8,1.7-8.8c0.1-1.1,0.2-2.3,0.3-3.4c0-0.1,0.1-0.2-0.1-0.3
		c-0.3-0.1-0.5,0-0.5,0.3c-0.1,1.7-0.3,3.3-0.5,5c-0.5,3.6-1.4,7.2-2.5,10.7c-3.2,9.4-8.3,17.6-15.4,24.6c-5.1,5-10.8,8.9-17.2,11.9
		c-4.5,2.1-9.3,3.6-14.2,4.6c-2.1,0.4-4.2,0.7-6.3,0.9C306.3,169.9,305.5,169.9,304.7,170z M298.2,170.5c0.1-0.7,0-0.5-0.5-0.6
		c-0.1,0-0.1,0-0.2,0c-2.2-0.1-4.4-0.4-6.6-0.8c-4.2-0.7-8.2-1.9-12.2-3.4c-17.1-6.8-30.4-21-36.1-38.6c-1.3-4.1-2.2-8.2-2.6-12.5
		c-0.1-0.8-0.2-1.7-0.2-2.5c0-0.2,0-0.3-0.2-0.3c-0.4,0-0.4,0-0.4,0.4c0.2,2.5,0.5,5,1,7.5c1.1,5.7,2.9,11.2,5.5,16.4
		c7,13.6,17.5,23.5,31.5,29.6c4.2,1.8,8.6,3.1,13.1,3.9c2.3,0.4,4.7,0.7,7,0.9C297.5,170.6,297.9,170.5,298.2,170.5z M358.8,104.5
		c-0.1-1.4-0.2-2.9-0.4-4.3c-0.5-3.7-1.3-7.2-2.6-10.7c-3.5-9.9-9.2-18.3-17.2-25.1c-6.6-5.6-14.1-9.5-22.5-11.7
		c-3-0.8-6.1-1.3-9.2-1.6c-0.7-0.1-1.3-0.1-2-0.1c-0.2,0-0.3,0-0.3,0.3c0,0.2,0.1,0.3,0.3,0.3c0.6,0,1.2,0.1,1.8,0.1
		c2.7,0.3,5.3,0.7,8,1.3c10.3,2.5,19.3,7.4,26.8,14.9c9.9,9.9,15.5,21.8,16.7,35.7c0,0.5,0.1,1,0.1,1.4s0.1,0.5,0.4,0.5
		c0.4,0,0.2-0.3,0.2-0.5C358.9,104.8,358.9,104.6,358.8,104.5z M297.8,50.8c-1,0.1-2.1,0.2-3.2,0.3c-2.5,0.3-5,0.8-7.4,1.4
		c-10.1,2.7-18.9,7.6-26.2,15c-9.8,9.9-15.3,21.9-16.6,35.9c0,0.5-0.1,1-0.1,1.6c0,0.2,0.1,0.3,0.3,0.3s0.3-0.1,0.3-0.3
		c0-0.6,0.1-1.3,0.1-1.9c0.2-3.2,0.8-6.3,1.6-9.3c2.6-10,7.6-18.7,15-26.1c7.2-7.2,15.8-12,25.6-14.6c2.5-0.7,5-1.1,7.6-1.4
		c1-0.1,2-0.2,3.1-0.3c0.3,0,0.3-0.2,0.3-0.4C298.2,50.7,297.9,50.9,297.8,50.8z M358.3,111.8c-0.2,2.1-0.4,4.2-0.8,6.2
		c-1,5.4-2.6,10.6-5.2,15.5c-7.1,14-18.1,23.5-32.8,28.5c-4.6,1.6-9.3,2.5-14.1,2.7c-0.2,0-0.4,0-0.6,0.1c-0.1,0-0.2,0.1-0.2,0.2
		c0,0.3,0,0.4,0.4,0.3c2.7-0.2,5.4-0.5,8-1.1c5-1,9.8-2.6,14.3-5c11.5-5.9,20.1-14.6,25.8-26.2c3-6.1,4.8-12.7,5.5-19.5
		c0.1-0.5,0.1-1,0.1-1.6c0-0.2,0-0.4-0.3-0.3C358.5,111.8,358.4,111.8,358.3,111.8z M244.3,111.8c0,0.9,0.1,1.8,0.2,2.7
		c0.3,2.9,0.9,5.8,1.6,8.7c3.2,11.4,9.2,20.9,18.2,28.6c9.6,8.2,20.8,12.7,33.5,13.6c0.1,0,0.2,0.1,0.3-0.1c0.1-0.1,0.1-0.3,0-0.4
		c-0.1-0.1-0.3-0.1-0.4-0.1c-2.3-0.1-4.7-0.5-7-0.9c-5.4-1-10.5-2.8-15.3-5.3c-10.9-5.8-19.2-14.2-24.8-25.2
		c-3.3-6.6-5.2-13.7-5.8-21.1C244.9,111.8,244.9,111.8,244.3,111.8z M351.7,108.5c1.3,0,2.5,0,3.8,0c0.2,0,0.4,0,0.4-0.3
		s0-0.4-0.4-0.4c-0.1,0-0.1,0-0.2,0c-2.4,0-4.7,0-7.1,0c-0.1,0-0.3,0-0.4,0s-0.1,0-0.2,0.1c-0.1,0.3,0,0.6,0.4,0.6
		C349.3,108.5,350.5,108.5,351.7,108.5z M251.2,108.5c1.3,0,2.6,0,4,0c0.2,0,0.3-0.1,0.3-0.3c0-0.2,0-0.4-0.3-0.4
		c-0.1,0-0.2,0-0.3,0c-2.4,0-4.8,0-7.3,0c-0.1,0-0.2,0-0.3,0c-0.2,0-0.3,0.1-0.3,0.3c0,0.4,0,0.4,0.4,0.4
		C248.7,108.5,249.9,108.5,251.2,108.5z M346.2,182.3c0.1-0.3,0-0.6,0.1-0.9c0-1,0-1-1-0.9c-0.2,0-0.3,0.1-0.3,0.3
		c0,0.4,0,0.8,0,1.2c0,0.3,0.1,0.3,0.3,0.3C345.6,182.3,345.9,182.3,346.2,182.3z"/>
	<path class="st1" d="M301.4,157c-5.2,0-10.3,0-15.5,0c-1.9,0-3.8-0.2-5.6-0.9c-5.4-2.1-8.7-5.9-10-11.6c-0.2-1.1-0.3-2.1-0.3-3.2
		c0-6.4,0-12.8,0-19.2c0-0.2,0-0.4,0-0.6c-0.7-0.1-1.3-0.1-2-0.3c-2.7-0.8-4.5-3.2-4.5-6c0-2.3,0-4.7,0-7c0-8.5,0-16.9,0-25.4
		c0-10.6,6.9-19.2,15.9-22.2c0.2-0.1,0.4-0.1,0.5-0.2c0.1,0.2,0.3,0.3,0.4,0.4c1.4,1,2.7,2,4.1,3c-0.1,0-0.2,0.1-0.3,0.1
		c-7,1.7-12.7,7-14.8,14c-0.8,2.6-1,5.3-0.9,8.1c0,0.1-0.1,0.2-0.1,0.2c-0.5,0.2-0.7,0.6-0.8,1c-0.3,0.6-0.5,1.3-0.6,2
		c-0.6,2.7-0.9,5.5-1,8.4c-0.1,2.6-0.1,5.2,0.1,7.9c0.1,2.1,0.3,4.2,0.7,6.3c0.2,1,0.4,2,0.8,2.9c0.1,0.3,0.2,0.5,0.4,0.8
		c0.4,0.4,0.8,0.5,1.1,0c0.1-0.1,0.2-0.3,0.3-0.4c1.2,1.7,2.9,2.5,5,2.5c7.2,0,14.4,0,21.6,0c0.1,1.4,0,2.7,0,4.1c-3,0-6.1,0-9.1,0
		c-0.5,0-0.5,0-0.5,0.4c0,4.6,0,9.3,0,13.9c-0.6,0-1.3,0-1.9,0c-0.7,0-0.6,0.1-0.6-0.6c0-2.9,0-5.9,0-8.8c0-3.1-2.7-4.9-4.9-4.9
		c-2.8,0-5.7,0-8.5,0c-0.1,0-0.3,0-0.5,0.1c0.1,0.2,0.2,0.3,0.3,0.5c1.6,2,3.2,4.1,4.8,6.1c0.2,0.3,0.3,0.6,0.3,1c0,3.2,0,6.4,0,9.6
		c0,0.8,0.1,1.6,0.2,2.3c1,6.1,6.3,10.7,12.5,10.8c1.8,0,3.6,0,5.4,0c2.4,0,4.9,0,7.3,0c0.5,0,0.5,0,0.5,0.6c0,1.4,0,2.8,0,4.2
		C301.4,156.7,301.4,156.8,301.4,157z"/>
	<path class="st1" d="M323.3,60.4c1.8,0.5,3.5,1.3,5.2,2.3c5.8,3.7,9.5,8.9,10.8,15.7c0.3,1.3,0.4,2.7,0.4,4.1c0,10.9,0,21.7,0,32.6
		c0,2.6-1.7,5.5-5,6.2c-0.4,0.1-0.7,0.1-1.1,0.1c-0.2,0-0.3,0.1-0.3,0.3c0,0.1,0,0.3,0,0.4c0,6.4,0,12.9,0,19.3
		c0,7.3-5,13.6-12.1,15.2c-1.3,0.3-2.5,0.4-3.8,0.4c-5.1,0-10.2,0-15.2,0c0-1.6,0-3.2,0-4.9c0-0.3,0.1-0.4,0.4-0.4
		c0.1,0,0.3,0,0.4,0c3.8,0,7.7,0,11.5,0c0.9,0,1.9,0,2.8-0.2c4.4-0.9,7.6-3.5,9.4-7.6c0.8-1.7,1.1-3.5,1.1-5.4c0-3.2,0-6.3,0-9.5
		c0-0.4,0.1-0.7,0.4-1.1c1.5-2,3.1-3.9,4.6-5.9c0.2-0.2,0.3-0.4,0.5-0.7c-0.2,0-0.3,0-0.3,0c-3,0-5.9,0-8.9,0c-0.2,0-0.4,0-0.7,0.1
		c-2.5,0.5-4,2.8-4,4.9c0,2.2,0,4.4,0,6.6c0,0.8,0,1.6,0,2.4c0,0.2-0.1,0.3-0.3,0.3c-0.7,0-1.5,0-2.2,0c0-4.6,0-9.2,0-13.8
		c0-0.1,0-0.2,0-0.3c0-0.1-0.1-0.2-0.2-0.2c-2.5,0-5.1,0-7.6,0c-0.5,0-1,0-1.4,0c-0.5,0-0.5,0-0.5-0.5s0-1,0-1.4
		c0-0.7-0.1-1.4,0-2.2c7.4,0,14.9,0,22.3,0c0.7,0,1.3-0.1,2-0.3c1.1-0.4,1.9-1.1,2.6-2.1c0.1,0.1,0.2,0.3,0.4,0.4
		c0.3,0.4,0.7,0.4,1,0c0.2-0.2,0.3-0.5,0.4-0.7c0.3-0.7,0.5-1.4,0.7-2.1c0.7-2.9,0.9-5.9,1-8.9c0.1-4,0-8-0.5-12
		c-0.2-1.4-0.4-2.9-1-4.2c-0.2-0.5-0.4-1.1-1-1.3c0,0,0-0.1-0.1-0.2c0-2,0-4.1-0.4-6.1c-1.6-7.3-5.9-12.4-12.9-15.2
		c-0.9-0.4-1.8-0.6-2.7-0.8c0.7-0.5,1.4-1,2.1-1.6C321.6,61.6,322.5,61.1,323.3,60.4z"/>
	<path class="st2" d="M323.3,60.4c-0.8,0.7-1.6,1.2-2.4,1.8c-0.7,0.5-1.4,1-2.1,1.6c-0.4,0.3-0.9,0.6-1.3,1c0.2,0.1,0.4,0.2,0.5,0.2
		c7,2.9,11.9,7.8,14.9,14.7c0.9,2,1.3,4.1,1.8,6.3c0,0.1,0,0.1,0.1,0.2c0.6,0.3,0.8,0.8,1,1.3c0.5,1.4,0.8,2.8,1,4.2
		c0.6,4,0.7,8,0.5,12c-0.1,3-0.3,5.9-1,8.9c-0.2,0.7-0.3,1.4-0.7,2.1c-0.1,0.3-0.2,0.5-0.4,0.7c-0.3,0.4-0.7,0.3-1,0
		c-0.1-0.1-0.2-0.3-0.4-0.4c-0.4-1-0.7-2-0.9-3c-0.6-2.9-0.8-5.8-0.9-8.7c-0.1-2.8,0-5.7,0.2-8.5c0.1-1.8,0.4-3.6,0.8-5.4
		c0.2-0.9,0.4-1.8,0.9-2.6c0.2-0.3,0.2-0.6,0.2-0.9c-0.5-2.7-1.3-5.3-2.5-7.8c-3.1-6-7.8-10.2-14.1-12.7c-0.4-0.2-0.7-0.1-1.1,0.2
		c-1.3,1-2.6,1.9-3.9,2.9c-2.2,1.7-4,3.7-5.3,6.2c-1,1.8-1.6,3.7-2,5.8c0,0.3,0,0.5,0.3,0.6c0.1,0,0.2,0.1,0.2,0.2
		c3.2,2.3,4,6.7,1.8,10c-0.6,0.8-1.3,1.5-2.2,2.1c-0.2,0.1-0.3,0.2-0.3,0.5c0,0.7,0,1.4,0,2.1c-0.1,0.2,0,0.4,0,0.6
		c0,2.3,0,4.6,0,6.9c0,0.9-0.1,0.8,0.8,0.8c7.9,0,15.9,0,23.8,0c0,0.2,0,0.4,0,0.7c-0.3,1.3-1.4,2.2-2.8,2.2c-0.8,0-1.5,0-2.3,0
		c-0.4,0-0.4,0-0.5,0.4c-0.2,1.6-0.8,3-1.9,4.2c-0.2,0.3-0.5,0.4-0.9,0.4c-2.9,0-5.9,0-8.8,0c-0.4,0-0.6-0.1-0.9-0.4
		c-1.1-1.2-1.8-2.6-1.9-4.2c0-0.4,0-0.4-0.4-0.4c-0.7,0-1.3,0-2,0c-0.4,0-0.5,0-0.4,0.5c0,2,0.1,3.9,0.1,5.9c0,1.4,0.1,2.8,0.1,4.2
		c-0.1,0.7,0.1,1.4,0,2.2c0,0.5,0,1,0,1.4s0,0.5,0.5,0.5s1,0,1.4,0c2.5,0,5.1,0,7.6,0c-1.4,0-2.9,0-4.3,0c-1.6,0-3.2,0-4.7,0
		c-0.5,0-0.5,0-0.5,0.5c0,1,0.1,2,0.1,3c-0.1-0.4-0.1-0.9-0.2-1.4c-0.2-1.8-0.4-3.6-0.6-5.5c-0.2-2.2-0.5-4.5-0.8-6.7
		c-0.2-1.6-1.1-2.9-2.6-3.3c-0.3,0-0.6-0.2-0.9-0.2c-0.1,0.2-0.1,0.4-0.1,0.6c0,5.7,0,11.4,0,17c0,0.2,0,0.4,0,0.6
		c0,0.1-0.1,0.1-0.1,0.2c0,1.1,0,2.3,0,3.4c0,0.2,0.1,0.3,0.3,0.3c0.5,0,1,0,1.4,0c1.5,0.1,3-0.8,3.5-2.6c0,0.4,0.1,0.9,0.1,1.3
		c0,1.8-1.4,3.3-3.2,3.3c-1.6,0-3.2,0-4.9,0c-1.5,0-2.7-1-3.1-2.5c-0.2-0.7-0.1-1.4-0.1-2.1c0,0.1,0.1,0.1,0.1,0.2
		c0.5,1.3,1.4,2.1,2.7,2.3c0.7,0.1,1.4,0,2.2,0c0.2,0,0.2-0.1,0.2-0.3c0-1.2,0.1-2.4,0-3.6c0-0.1,0-0.3,0-0.4c0-5.7,0-11.5,0-17.2
		c0-0.2,0-0.3-0.1-0.5c-0.3-0.1-0.5,0.1-0.7,0.1c-0.2,0.1-0.4,0.1-0.6,0.3l0,0c-0.3,0.1-0.6,0.2-0.7,0.6l0,0c-0.1,0-0.2,0-0.1,0.1
		l0,0c-0.2-0.1-0.2,0.1-0.3,0.1c-0.4,0.5-0.7,1.1-0.8,1.7c-0.1,0.5-0.2,1.1-0.2,1.6c-0.2,1.8-0.5,3.7-0.7,5.5
		c-0.2,1.9-0.5,3.8-0.8,5.7c-0.1,0.7-0.1,1.4-0.3,2.1c0-0.2,0-0.4,0-0.6c0-1.3,0-2.5,0-3.8c0-1.4,0-2.7,0-4.1c0-0.8,0-1.6,0-2.4
		c0-2.5,0-5.1,0-7.6c0-0.5,0-0.5-0.4-0.5c-0.6,0-1.2,0-1.8,0c-0.3,0-0.4,0.1-0.4,0.4c-0.2,1.6-0.8,3-1.9,4.2
		c-0.3,0.3-0.5,0.4-0.9,0.4c-2.8,0-5.5,0-8.3,0c-1.2,0-1.2,0-1.8-0.9c-0.8-1.1-1.3-2.3-1.5-3.7c0-0.4-0.1-0.4-0.5-0.4
		c-0.7,0-1.3,0-2,0c-1.6-0.1-2.8-1.3-2.8-2.9c0.2,0,0.4,0,0.7,0c7.7,0,15.4,0,23.1,0c0.1,0,0.3,0,0.4,0c0.3,0,0.4-0.1,0.4-0.4
		c0-0.1,0-0.1,0-0.2c0-2.4,0-4.8,0-7.1c0-0.2,0-0.4,0-0.6c0.1-0.6,0-1.2,0-1.8c0-0.4-0.1-0.6-0.5-0.9c-2.1-1.4-3.2-3.3-3.3-5.8
		c-0.1-2.7,1.1-4.7,3.2-6.2c0.2-0.2,0.3-0.3,0.3-0.6c-0.9-4.9-3.3-8.9-7.2-11.9c-1.3-1-2.7-2-4-3c-0.3-0.3-0.6-0.3-1-0.1
		c-6.6,2.6-11.4,7.1-14.5,13.5c-1.1,2.3-1.8,4.7-2.2,7.2c0,0.2,0,0.4,0.1,0.6c0.3,0.4,0.4,0.8,0.6,1.2c0.4,1.1,0.6,2.3,0.8,3.4
		c0.4,2.6,0.6,5.2,0.6,7.8c0.1,3.5,0,7-0.5,10.5c-0.2,1.8-0.5,3.6-1.3,5.3c-0.1,0.1-0.2,0.3-0.3,0.4c-0.4,0.4-0.8,0.4-1.1,0
		c-0.2-0.2-0.3-0.5-0.4-0.8c-0.4-0.9-0.6-1.9-0.8-2.9c-0.4-2.1-0.6-4.2-0.7-6.3c-0.2-2.6-0.2-5.2-0.1-7.9c0.1-2.8,0.3-5.6,1-8.4
		c0.2-0.7,0.3-1.3,0.6-2c0.2-0.4,0.4-0.8,0.8-1c0.1,0,0.1-0.1,0.1-0.2c0.1-0.3,0.1-0.5,0.2-0.8c1.7-8.7,6.6-15.1,14.4-19.2
		c0.8-0.4,1.7-0.8,2.6-1.2c-0.3-0.4-0.8-0.6-1.1-0.9l0.1-0.1c0.1,0,0.1,0,0.2,0c0.1,0.1,0.3,0.2,0.4,0.3c0.5,0.5,1,0.6,1.6,0.3
		c0.1-0.1,0.3-0.1,0.4-0.1c1.2-0.4,2.5-0.6,3.7-0.9c1.5-0.1,3.1-0.3,4.6-0.3c1.7,0,3.3,0,5,0c0.1,0,0.3,0,0.4,0
		c0.2,0,0.3-0.1,0.3-0.3v-0.1c0-1,0-2,0-3c0-0.4,0-0.4-0.4-0.4h-0.1c-5,0-10,0-15,0c0.3-0.1,0.7-0.1,1-0.1c4.5,0,9.1,0,13.6,0
		c0.1,0,0.2,0,0.3,0c0.7,0,0.6,0.1,0.6-0.6c0-1.4,0-2.8,0-4.1c0-0.2,0-0.4,0.3-0.4c0.4,0,0.4,0,0.4,0.4c0,1.3,0,2.6,0,4
		c0,0.1,0,0.3,0,0.4c0,0.3,0.1,0.4,0.4,0.4c0.1,0,0.3,0,0.4,0c4.5,0,9,0,13.4,0c0.3,0,0.7,0,1,0.1c-0.4,0-0.7,0-1.1,0
		c-4.5,0-8.9,0-13.4,0c-0.1,0-0.3,0-0.4,0c-0.3,0-0.4,0.1-0.4,0.4c0,1,0,1.9,0,2.9c0,0.5,0,0.5,0.5,0.5c0.9,0,1.8,0,2.7,0
		c2.3,0,4.6,0,6.8,0.2c0.1,0,0.1,0.1,0.2,0.1c1.2,0.2,2.4,0.5,3.6,0.8c0.4,0.1,0.8,0.5,1.3,0.3c0.4-0.1,0.7-0.5,1.1-0.8
		c0.1,0,0.2-0.1,0.2-0.1c1.4-1,2.8-2.1,4.2-3.1c0.1-0.1,0.2-0.2,0.2-0.3C323.1,60.3,323.2,60.3,323.3,60.4z M304.7,95.6
		c0.1-0.7,0-1.4,0-2.2c-2.1,1-4.2,1-6.4,0c0,0.7,0,1.3,0,1.9c0,0.3,0.1,0.3,0.4,0.3c0.9,0,1.9,0,2.8,0c1,0,1.9,0,2.9,0
		c-0.1,0-0.1,0-0.2,0c-1.8,0-3.5,0-5.3,0c-0.5,0-0.5,0-0.5,0.5c0,2.4,0,4.9,0,7.3c0,0.5,0,0.5,0.5,0.5c1.8,0,3.6,0,5.4,0
		c0.1,0,0.1,0,0.2,0c0.3,0,0.3-0.1,0.3-0.3c0-0.1,0-0.2,0-0.3c0-2.4,0-4.8,0-7.1C304.8,95.9,304.8,95.8,304.7,95.6z M305,80.5
		c0-0.2,0.1-0.3,0.1-0.4s0-0.1,0-0.2c1-5,3.5-8.9,7.5-11.9c1.2-0.9,2.5-1.8,3.7-2.7c0.1-0.1,0.3-0.1,0.3-0.3
		c-2.5-0.8-5.1-1.3-7.7-1.4c-2.1,0-4.1,0-6.2,0c-0.6,0-0.5-0.1-0.6,0.6c0,0.1,0,0.2,0,0.3c0,0.1-0.1,0.2-0.2,0.2
		c-0.4,0.1-0.5,0-0.5-0.5c0-0.1,0-0.1,0-0.2c0-0.5,0-0.5-0.5-0.5c-2.1,0-4.2,0-6.3,0c-2.2,0-4.4,0.3-6.5,0.9
		c-0.5,0.1-1.1,0.3-1.6,0.5c0.1,0.2,0.3,0.3,0.5,0.4c1.2,0.9,2.5,1.8,3.7,2.7c4,3,6.4,7,7.3,11.9c0,0.2,0,0.3,0.2,0.5
		C300.5,79.4,302.7,79.4,305,80.5z M301.6,93.5c3.5,0,6.6-2.7,6.6-6.6c0-3.7-3-6.7-6.6-6.7s-6.6,3-6.6,6.6
		C295,90.5,297.9,93.5,301.6,93.5z M267.4,100.9c0,0.8,0.1,1.6,0.1,2.5c0.1,0.7,0.1,1.5,0.3,2.2c0.1,0.3,0.2,0.7,0.4,1
		c0.2,0.3,0.4,0.3,0.6,0s0.3-0.6,0.3-0.9c0.4-2.1,0.5-4.2,0.4-6.3c-0.1-1.1-0.1-2.2-0.4-3.2c-0.1-0.3-0.2-0.7-0.3-0.9
		c-0.2-0.4-0.4-0.4-0.7,0c-0.2,0.3-0.3,0.7-0.4,1.1C267.5,97.7,267.5,99.3,267.4,100.9z M335.7,100.8c0-0.7,0-1.3,0-2
		c-0.1-1-0.2-2-0.4-3c-0.1-0.3-0.1-0.5-0.3-0.8c-0.2-0.3-0.4-0.3-0.6,0s-0.3,0.6-0.3,0.9c-0.2,0.9-0.3,1.9-0.4,2.8
		c-0.1,2.2-0.1,4.4,0.3,6.6c0.1,0.4,0.2,0.8,0.4,1.2c0.1,0.1,0.2,0.3,0.4,0.3c0.2,0,0.3-0.2,0.4-0.3c0.2-0.4,0.3-0.7,0.4-1.1
		C335.7,103.9,335.8,102.4,335.7,100.8z"/>
	<path class="st2" d="M316.7,135.7c0.7,0,1.5,0,2.2,0c0.2,0,0.3-0.1,0.3-0.3c0-0.8,0-1.6,0-2.4c0-2.2,0-4.4,0-6.6
		c0-2.1,1.4-4.4,4-4.9c0.2,0,0.4-0.1,0.7-0.1c3,0,5.9,0,8.9,0c0.1,0,0.2,0,0.3,0c-0.2,0.3-0.3,0.5-0.5,0.7c-1.5,2-3.1,3.9-4.6,5.9
		c-0.3,0.3-0.4,0.6-0.4,1.1c0,3.2,0,6.3,0,9.5c0,1.9-0.3,3.7-1.1,5.4c-1.9,4.1-5,6.6-9.4,7.6c-0.9,0.2-1.8,0.2-2.8,0.2
		c-3.8,0-7.7,0-11.5,0c-0.1,0-0.3,0-0.4,0c-0.3,0-0.4,0.1-0.4,0.4c0,1.6,0,3.2,0,4.9c0,1.9,0,3.8,0,5.6c0,0.4,0,0.4-0.4,0.4
		s-0.3-0.2-0.3-0.5c0-1.9,0-3.7,0-5.6c0.1-0.1,0-0.3,0-0.4c0-1.4,0-2.8,0-4.2c0-0.6,0-0.6-0.5-0.6c-2.4,0-4.9,0-7.3,0
		c-1.8,0-3.6,0-5.4,0c-6.1-0.1-11.4-4.7-12.5-10.8c-0.1-0.8-0.2-1.5-0.2-2.3c0-3.2,0-6.4,0-9.6c0-0.4-0.1-0.7-0.3-1
		c-1.6-2-3.2-4.1-4.8-6.1c-0.1-0.1-0.2-0.3-0.3-0.5c0.2-0.1,0.3-0.1,0.5-0.1c2.8,0,5.7,0,8.5,0c2.2,0,4.8,1.8,4.9,4.9
		c0,2.9,0,5.9,0,8.8c0,0.7-0.1,0.6,0.6,0.6c0.6,0,1.3,0,1.9,0c0.1,0,0.3,0,0.4,0c9.8,0,19.6,0,29.4,0
		C316.4,135.7,316.6,135.7,316.7,135.7z M316.8,136.4c-1.2,0-2.3,0-3.5,0c-0.4,0-0.4,0-0.5,0.4c-0.5,1.9-1.9,3.1-3.9,3.1
		c-4.9,0-9.7,0-14.6,0c-0.4,0-0.8,0-1.2-0.2c-1.5-0.5-2.4-1.5-2.7-3c0-0.2-0.1-0.4-0.4-0.4c-1.2,0-2.4,0-3.6,0c-0.7-0.1-1.5,0-2.2,0
		c-0.2,0-0.3,0.1-0.3,0.3c0,0.1,0,0.3,0,0.4c0,0.6,0,1.2,0,2c-0.2-0.2-0.3-0.3-0.5-0.5c-2.3-2.9-4.5-5.8-6.8-8.7
		c-0.1-0.1-0.2-0.3-0.4-0.4c0,0.2,0,0.4,0,0.6c0,2.8,0,5.6,0,8.4c0,0.5,0,1,0.1,1.5c0.3,2.8,1.5,5.3,3.5,7.3c2.5,2.5,5.5,3.7,9,3.7
		c8.6,0,17.2,0,25.7,0c1.5,0,3-0.2,4.4-0.7c4.9-1.8,8.1-6.4,8.2-11.7c0-2.9,0-5.8,0-8.7c0-0.1,0.1-0.3-0.1-0.5
		c-1.3,1.6-2.5,3.2-3.7,4.8c-1.3,1.6-2.5,3.2-3.8,4.8c0-0.8-0.1-1.5,0-2.2c0-0.3-0.1-0.4-0.4-0.4
		C318.2,136.4,317.5,136.4,316.8,136.4z"/>
	<path class="st1" d="M284.9,63.8c-0.1,0-0.1,0-0.2,0c-0.1-0.2-0.3-0.3-0.5-0.5c-0.7-0.5-1.5-1.1-2.2-1.6c-0.6-0.5-1.3-0.9-1.9-1.4
		c1.3-0.5,2.6-0.7,3.9-0.9c0.6-0.1,1.2-0.1,1.8-0.1c5,0,10,0,15,0h0.1c0.4,0,0.4,0,0.4,0.4c0,1,0,2,0,3v0.1c0,0.2-0.1,0.3-0.3,0.3
		c-0.1,0-0.3,0-0.4,0c-1.7,0-3.3,0-5,0c-1.5,0-3.1,0.1-4.6,0.3c-1.5-0.1-3-0.1-4.5,0.1C286,63.5,285.4,63.6,284.9,63.8z"/>
	<path class="st1" d="M322.9,60.3c0,0.1-0.1,0.2-0.2,0.3c-1.4,1-2.8,2.1-4.2,3.1c-0.1,0.1-0.2,0.1-0.2,0.1c-0.1,0-0.1-0.1-0.2-0.1
		c-2-0.4-3.9-0.4-5.9-0.3c-2.3-0.3-4.6-0.3-6.8-0.2c-0.9,0-1.8,0-2.7,0c-0.5,0-0.5,0-0.5-0.5c0-1,0-1.9,0-2.9c0-0.3,0.1-0.4,0.4-0.4
		c0.1,0,0.3,0,0.4,0c4.5,0,8.9,0,13.4,0c0.4,0,0.7,0,1.1,0C319.2,59.4,321.1,59.7,322.9,60.3z"/>
	<path class="st1" d="M305.8,45.7c5.4,0.4,10.6,1.3,15.7,3.1c16.2,5.6,28.2,16.1,36,31.3c2.7,5.2,4.5,10.7,5.6,16.5
		c0.5,2.6,0.8,5.2,1,7.9c0,0.2,0,0.3,0,0.5s0,0.3-0.2,0.3s-0.4,0-0.4-0.3c0-0.7-0.1-1.3-0.1-1.9c-0.4-4.7-1.3-9.2-2.7-13.6
		c-5.8-18.4-19.8-32.9-37.9-39.5c-3.6-1.3-7.2-2.3-11-2.9c-2.3-0.4-4.5-0.6-6.8-0.8c-0.2,0-0.4,0-0.4-0.3c0-0.2,0.1-0.3,0.3-0.3
		C305.3,45.7,305.5,45.7,305.8,45.7z"/>
	<path class="st1" d="M239.7,105.3c-0.1,0-0.2,0-0.2,0c-0.3,0-0.4,0-0.4-0.3c0.1-0.8,0.1-1.6,0.2-2.4c0.2-2.2,0.5-4.5,1-6.7
		c1.3-6.6,3.6-12.9,7-18.7c7.9-13.6,19.3-23.1,34.2-28.3c3.3-1.2,6.7-2,10.2-2.5c2.1-0.3,4.2-0.6,6.3-0.7c0.2,0,0.4-0.1,0.4,0.3
		c0,0.3,0,0.3-0.4,0.3c-8,0.5-15.7,2.4-23,6c-12.6,6.1-22.1,15.4-28.5,27.8c-2.8,5.4-4.7,11.2-5.8,17.1c-0.4,2.3-0.7,4.7-0.8,7.1
		C239.7,104.6,239.7,105,239.7,105.3z"/>
	<path class="st1" d="M304.7,170c0.8-0.1,1.6-0.1,2.4-0.2c2.1-0.2,4.2-0.5,6.3-0.9c4.9-0.9,9.7-2.5,14.2-4.6c6.4-3,12.2-7,17.2-11.9
		c7.1-7,12.3-15.2,15.4-24.6c1.2-3.5,2-7,2.5-10.7c0.2-1.7,0.4-3.3,0.5-5c0-0.3,0.2-0.4,0.5-0.3c0.2,0.1,0.1,0.2,0.1,0.3
		c-0.1,1.1-0.2,2.3-0.3,3.4c-0.3,3-0.9,5.9-1.7,8.8c-2.3,8.7-6.4,16.6-12.1,23.5c-7.6,9.2-17,15.7-28.3,19.6
		c-3.4,1.2-6.8,2-10.4,2.5c-2,0.3-4,0.5-6,0.6h-0.1C304.6,170.6,304.6,170.6,304.7,170z"/>
	<path class="st1" d="M298.2,170.5c-0.3,0-0.6,0-0.9,0c-2.4-0.2-4.7-0.5-7-0.9c-4.5-0.8-8.9-2.1-13.1-3.9c-14-6.1-24.6-16-31.5-29.6
		c-2.6-5.2-4.4-10.6-5.5-16.4c-0.5-2.5-0.8-5-1-7.5c0-0.4,0-0.4,0.4-0.4c0.3,0,0.2,0.2,0.2,0.3c0,0.8,0.1,1.7,0.2,2.5
		c0.4,4.2,1.3,8.4,2.6,12.5c5.6,17.5,19,31.8,36.1,38.6c3.9,1.6,8,2.7,12.2,3.4c2.2,0.4,4.4,0.7,6.6,0.8c0.1,0,0.1,0,0.2,0
		C298.2,170,298.3,169.9,298.2,170.5z"/>
	<path class="st1" d="M358.8,104.5c0,0.1,0,0.3,0,0.4c0,0.2,0.2,0.4-0.2,0.5c-0.3,0-0.3,0-0.4-0.5c0-0.5-0.1-1-0.1-1.4
		c-1.2-13.9-6.8-25.9-16.7-35.7c-7.5-7.5-16.5-12.4-26.8-14.9c-2.6-0.6-5.3-1-8-1.3c-0.6-0.1-1.2-0.1-1.8-0.1
		c-0.2,0-0.3-0.1-0.3-0.3s0.1-0.3,0.3-0.3c0.7,0,1.3,0.1,2,0.1c3.1,0.3,6.2,0.8,9.2,1.6c8.4,2.2,15.9,6.1,22.5,11.7
		c8,6.8,13.8,15.2,17.2,25.1c1.2,3.5,2.1,7.1,2.6,10.7C358.6,101.6,358.8,103,358.8,104.5z"/>
	<path class="st1" d="M297.8,50.8c0.2,0.1,0.4-0.1,0.4,0.2c0,0.2,0,0.4-0.3,0.4c-1,0.1-2,0.2-3.1,0.3c-2.6,0.3-5.1,0.8-7.6,1.4
		c-9.8,2.6-18.4,7.5-25.6,14.6c-7.4,7.3-12.4,16-15,26.1c-0.8,3.1-1.3,6.2-1.6,9.3c0,0.6-0.1,1.3-0.1,1.9c0,0.2-0.1,0.3-0.3,0.3
		s-0.3-0.1-0.3-0.3c0-0.5,0.1-1,0.1-1.6c1.2-13.9,6.7-25.9,16.6-35.9c7.3-7.4,16.1-12.4,26.2-15c2.4-0.6,4.9-1.1,7.4-1.4
		C295.7,51,296.7,51,297.8,50.8z"/>
	<path class="st1" d="M358.3,111.8c0.1,0,0.2,0,0.3,0c0.3,0,0.3,0.1,0.3,0.3c0,0.5-0.1,1-0.1,1.6c-0.7,6.8-2.5,13.3-5.5,19.5
		c-5.7,11.6-14.3,20.3-25.8,26.2c-4.5,2.3-9.3,4-14.3,5c-2.6,0.5-5.3,0.9-8,1.1c-0.4,0-0.5,0-0.4-0.3c0-0.1,0.1-0.2,0.2-0.2
		c0.2,0,0.4,0,0.6-0.1c4.8-0.3,9.5-1.2,14.1-2.7c14.8-5.1,25.7-14.6,32.9-28.4c2.5-4.9,4.2-10.1,5.2-15.5
		C357.9,116,358.1,114,358.3,111.8z"/>
	<path class="st1" d="M244.3,111.8c0.6,0,0.5,0,0.6,0.4c0.6,7.4,2.4,14.5,5.8,21.1c5.6,11,13.8,19.4,24.8,25.2
		c4.8,2.5,10,4.3,15.3,5.3c2.3,0.4,4.6,0.8,7,0.9c0.1,0,0.3,0,0.4,0.1s0.1,0.3,0,0.4c-0.1,0.1-0.2,0.1-0.3,0.1
		c-12.6-0.9-23.8-5.4-33.5-13.6c-9-7.7-15-17.2-18.2-28.6c-0.8-2.9-1.3-5.8-1.6-8.7C244.5,113.6,244.4,112.8,244.3,111.8z"/>
	<path class="st2" d="M351.7,108.5c-1.2,0-2.4,0-3.6,0c-0.4,0-0.5-0.2-0.4-0.6c0-0.1,0.1-0.1,0.2-0.1s0.3,0,0.4,0c2.4,0,4.7,0,7.1,0
		c0.1,0,0.1,0,0.2,0c0.4,0,0.4,0,0.4,0.4c0,0.3-0.1,0.3-0.4,0.3C354.3,108.5,353,108.5,351.7,108.5z"/>
	<path class="st2" d="M251.2,108.5c-1.2,0-2.5,0-3.7,0c-0.4,0-0.4,0-0.4-0.4c0-0.2,0.1-0.3,0.3-0.3c0.1,0,0.2,0,0.3,0
		c2.4,0,4.8,0,7.3,0c0.1,0,0.2,0,0.3,0c0.3,0,0.3,0.2,0.3,0.4c0,0.2-0.1,0.3-0.3,0.3C253.8,108.5,252.5,108.5,251.2,108.5z"/>
	<path class="st2" d="M280.2,60.3c0.6,0.5,1.2,0.9,1.9,1.4c0.7,0.5,1.5,1.1,2.2,1.6c0.2,0.1,0.4,0.3,0.5,0.5l-0.1,0.1
		c0,0-0.1,0-0.1-0.1c-1.4-1-2.7-2-4.1-3c-0.1-0.1-0.3-0.2-0.4-0.4C280,60.3,280.1,60.3,280.2,60.3z"/>
	<path class="st0" d="M269.3,114.8c0.7-1.7,1-3.5,1.3-5.3c0.4-3.5,0.6-7,0.5-10.5c-0.1-2.6-0.2-5.2-0.6-7.8
		c-0.2-1.2-0.4-2.3-0.8-3.4c-0.1-0.4-0.3-0.8-0.6-1.2c-0.1-0.2-0.2-0.4-0.1-0.6c0.4-2.5,1.1-4.9,2.2-7.2c3.1-6.4,7.9-10.8,14.5-13.5
		c0.4-0.2,0.7-0.1,1,0.1c1.3,1,2.7,1.9,4,3c3.9,3,6.4,7,7.2,11.9c0.1,0.3,0,0.4-0.3,0.6c-2.2,1.5-3.3,3.6-3.2,6.2
		c0.1,2.5,1.2,4.4,3.3,5.8c0.4,0.2,0.5,0.5,0.5,0.9c0,0.6,0,1.2,0,1.8c-0.1,0-0.2,0-0.3,0c-0.1,0-0.2,0-0.3,0c-5.2,0-10.4,0-15.6,0
		c-0.1,0-0.2,0-0.3,0c-0.3,0-0.7,0-1,0.1c-3.2,0.5-5.4,2.3-6.6,5.3c-0.4,0.9-0.6,1.9-0.5,3c0,1.6,1.2,2.8,2.8,2.9c0.6,0,1.3,0,2,0
		c0.4,0,0.5,0,0.5,0.4c0.1,1.4,0.6,2.6,1.5,3.7c0.7,0.9,0.7,0.9,1.8,0.9c2.8,0,5.5,0,8.3,0c0.4,0,0.7-0.1,0.9-0.4
		c1.1-1.2,1.7-2.6,1.9-4.2c0-0.3,0.1-0.4,0.4-0.4c0.6,0,1.2,0,1.8,0c0.4,0,0.4,0,0.4,0.5c0,2.5,0,5.1,0,7.6c0,0.8,0,1.6,0,2.4
		c-7.2,0-14.4,0-21.6,0C272.2,117.3,270.6,116.6,269.3,114.8z"/>
	<path class="st0" d="M316.7,135.7c-0.1,0-0.3,0-0.4,0c-9.8,0-19.6,0-29.4,0c-0.1,0-0.3,0-0.4,0c0-4.6,0-9.3,0-13.9
		c0-0.4,0-0.4,0.5-0.4c3,0,6.1,0,9.1,0c0,1.3,0,2.5,0,3.8c0,0.2,0,0.4,0,0.6c0,0.5-0.1,1.1,0,1.6c0,0.7-0.1,1.4,0.1,2.1
		c0.4,1.4,1.6,2.5,3.1,2.5c1.6,0,3.2,0,4.9,0c1.8,0,3.2-1.5,3.2-3.3c0-0.4,0-0.9-0.1-1.3c0.1-0.3,0.1-0.5,0.1-0.8
		c0-0.5-0.1-1.1-0.1-1.6c0-1,0-2-0.1-3c0-0.5,0-0.5,0.5-0.5c1.6,0,3.2,0,4.7,0c1.4,0,2.9,0,4.3,0c0.1,0,0.2,0.1,0.2,0.2s0,0.2,0,0.3
		C316.7,126.5,316.7,131.1,316.7,135.7z"/>
	<path class="st0" d="M284.5,63.8c0,0,0.1,0,0.1,0.1c0.3,0.3,0.8,0.5,1.1,0.9c-0.9,0.4-1.8,0.7-2.6,1.2
		c-7.8,4.1-12.7,10.5-14.4,19.2c-0.1,0.3-0.1,0.5-0.2,0.8c-0.1-2.7,0.1-5.4,0.9-8.1c2.1-6.9,7.8-12.3,14.8-14
		C284.3,63.9,284.4,63.8,284.5,63.8z"/>
	<path class="st0" d="M307,117.3c0-1.4-0.1-2.8-0.1-4.2c0-2-0.1-3.9-0.1-5.9c0-0.5,0-0.5,0.4-0.5c0.7,0,1.3,0,2,0
		c0.4,0,0.4,0,0.4,0.4c0.2,1.6,0.8,3,1.9,4.2c0.2,0.3,0.5,0.4,0.9,0.4c2.9,0,5.9,0,8.8,0c0.4,0,0.6-0.1,0.9-0.4
		c1.1-1.2,1.8-2.6,1.9-4.2c0-0.4,0-0.4,0.5-0.4c0.8,0,1.5,0,2.3,0c1.4,0,2.5-0.9,2.8-2.2c0.1-0.2,0.1-0.4,0-0.7
		c0.1-0.6,0-1.2-0.2-1.8c-0.9-3.9-4.3-6.4-7.8-6.5c-0.2-0.1-0.3,0-0.5,0c-5.1,0-10.3,0-15.4,0c-0.1,0-0.2,0-0.3,0
		c-0.1,0-0.2,0-0.3,0c-0.1-0.7,0-1.4,0-2.1c0-0.3,0.2-0.3,0.3-0.5c0.9-0.5,1.6-1.2,2.2-2.1c2.2-3.2,1.5-7.7-1.8-10
		c-0.1-0.1-0.1-0.1-0.2-0.2c-0.3-0.1-0.3-0.3-0.3-0.6c0.4-2,1-4,2-5.8c1.3-2.4,3.1-4.5,5.3-6.2c1.3-1,2.6-1.9,3.9-2.9
		c0.3-0.3,0.6-0.3,1.1-0.2c6.3,2.5,11,6.7,14.1,12.7c1.3,2.4,2.1,5,2.5,7.8c0.1,0.3,0,0.6-0.2,0.9c-0.5,0.8-0.7,1.7-0.9,2.6
		c-0.4,1.8-0.6,3.6-0.8,5.4c-0.2,2.8-0.3,5.6-0.2,8.5c0.1,2.9,0.3,5.8,0.9,8.7c0.2,1,0.5,2.1,0.9,3c-0.7,0.9-1.5,1.7-2.6,2.1
		c-0.6,0.2-1.3,0.4-2,0.3C321.8,117.3,314.4,117.3,307,117.3z"/>
	<path class="st0" d="M334.7,85.9c-0.4-2.1-0.9-4.3-1.8-6.3c-3-6.9-7.9-11.8-14.9-14.7c-0.2-0.1-0.3-0.1-0.5-0.2
		c0.4-0.4,0.8-0.7,1.3-1c0.9,0.3,1.8,0.5,2.7,0.8c7,2.8,11.3,7.9,12.9,15.2C334.7,81.9,334.7,83.9,334.7,85.9z"/>
	<path class="st0" d="M305,80.5c-2.3-1.1-4.5-1.1-6.7,0c-0.1-0.1-0.1-0.3-0.2-0.5c-0.9-4.9-3.4-8.9-7.3-11.9
		c-1.2-0.9-2.5-1.8-3.7-2.7c-0.1-0.1-0.3-0.2-0.5-0.4c0.5-0.2,1-0.4,1.6-0.5c2.1-0.6,4.3-0.9,6.5-0.9c2.1,0,4.2,0,6.3,0
		c0.5,0,0.5,0,0.5,0.5c0,0.1,0,0.1,0,0.2c0,0.4,0.1,0.5,0.5,0.5c0.1,0,0.2-0.1,0.2-0.2s0-0.2,0-0.3c0-0.6-0.1-0.6,0.6-0.6
		c2.1,0,4.1,0,6.2,0c2.6,0,5.2,0.5,7.7,1.4c0,0.2-0.2,0.2-0.3,0.3c-1.2,0.9-2.5,1.8-3.7,2.7c-4,3-6.5,7-7.5,11.9c0,0.1,0,0.1,0,0.2
		C305,80.2,305,80.3,305,80.5z"/>
	<path class="st1" d="M273.6,103.9c-0.1-1,0.1-2,0.5-3c1.2-3,3.4-4.7,6.6-5.3c0.3-0.1,0.7,0,1-0.1c0.1,0,0.2,0,0.3,0
		c5.2,0,10.3,0,15.5,0c0.1,0,0.2,0,0.3,0c0.1,0,0.2,0,0.3,0c0.1,0.2,0,0.4,0,0.6c0,2.4,0,4.8,0,7.1c0,0.1,0,0.1,0,0.2
		c0,0.3-0.1,0.4-0.4,0.4c-0.1,0-0.3,0-0.4,0c-7.7,0-15.4,0-23.1,0C274.1,103.9,273.8,103.9,273.6,103.9z"/>
	<path class="st1" d="M305,95.6c0.1,0,0.2,0,0.3,0c0.1,0,0.2,0,0.3,0c5.3,0,10.6,0,15.9,0c3.5,0,7,2.6,7.8,6.5
		c0.1,0.6,0.2,1.2,0.2,1.8c-7.9,0-15.9,0-23.8,0c-0.9,0-0.8,0.1-0.8-0.8c0-2.3,0-4.6,0-6.9C305,96,305,95.8,305,95.6z"/>
	<path class="st1" d="M301.6,93.5c-3.7,0-6.6-3-6.6-6.7c0-3.6,3-6.6,6.6-6.6s6.6,3,6.6,6.7C308.2,90.8,305,93.5,301.6,93.5z
		 M301.6,91.3c2.4,0,4.4-2,4.4-4.4s-2-4.4-4.4-4.4s-4.4,2-4.4,4.4S299.2,91.3,301.6,91.3z"/>
	<path class="st0" d="M302,126c-0.1-0.2,0-0.4,0-0.6c0-5.7,0-11.4,0-17c0-0.2,0-0.4,0.1-0.6c0.3,0,0.6,0.1,0.9,0.2l0.1,0.1
		c1,0.5,1.6,1.4,1.8,2.5c0.2,1.6,0.4,3.2,0.5,4.9c0.3,2.5,0.6,4.9,0.8,7.4c0.2,1.7-1.1,3.1-2.7,3.1C303,126,302.5,126,302,126z"/>
	<path class="st0" d="M300.4,108c0.3,0,0.5-0.2,0.7-0.1c0.1,0.2,0.1,0.3,0.1,0.5c0,5.7,0,11.5,0,17.2c0,0.1,0,0.3,0,0.4
		c-0.5,0-1,0-1.4,0c-0.3,0-0.5,0-0.8-0.1c-1.2-0.3-2-1.4-2-2.7c0-0.8,0.2-1.6,0.3-2.4c0.2-1.9,0.5-3.7,0.7-5.6
		c0.2-1.5,0.4-3.1,0.6-4.6c0.1-0.6,0.4-1.1,0.5-1.6l0,0c0.1,0,0.1,0,0.1-0.1l0,0c0.3-0.1,0.5-0.4,0.7-0.6l0,0
		C300.1,108.3,300.2,108.1,300.4,108z"/>
	<path class="st1" d="M304.7,95.6c0.1,0.2,0,0.4,0,0.6c0,2.4,0,4.8,0,7.1c0,0.1,0,0.2,0,0.3c0,0.2-0.1,0.4-0.3,0.3
		c-0.1,0-0.1,0-0.2,0c-1.8,0-3.6,0-5.4,0c-0.5,0-0.5,0-0.5-0.5c0-2.4,0-4.9,0-7.3c0-0.5,0-0.5,0.5-0.5c1.8,0,3.5,0,5.3,0
		c0.1,0,0.1,0,0.2,0C304.6,95.6,304.6,95.6,304.7,95.6z"/>
	<path class="st1" d="M302,126c0.5,0,1,0,1.5,0c1.6,0,2.9-1.4,2.7-3.1c-0.3-2.5-0.6-4.9-0.8-7.4c-0.2-1.6-0.4-3.2-0.5-4.9
		c-0.1-1.2-0.7-2-1.8-2.5L303,108c1.5,0.5,2.5,1.7,2.6,3.3c0.2,2.2,0.5,4.5,0.8,6.7c0.2,1.8,0.4,3.7,0.6,5.5c0.1,0.5,0,0.9,0.2,1.4
		c0,0.5,0.1,1.1,0.1,1.6c0,0.3,0,0.6-0.1,0.8c-0.5,1.8-2,2.7-3.5,2.6c-0.5,0-1,0-1.4,0c-0.2,0-0.3,0-0.3-0.3c0-1.1,0-2.3,0-3.4
		C301.9,126.1,302,126.1,302,126z"/>
	<path class="st1" d="M299.1,109c-0.2,0.5-0.5,1-0.5,1.6c-0.2,1.5-0.4,3.1-0.6,4.6c-0.2,1.9-0.5,3.7-0.7,5.6
		c-0.1,0.8-0.3,1.6-0.3,2.4c0,1.3,0.8,2.3,2,2.7c0.3,0.1,0.5,0.1,0.8,0.1c0.5,0,1,0,1.4,0c0.1,1.2,0,2.4,0,3.6c0,0.2,0,0.3-0.2,0.3
		c-0.7,0-1.5,0.1-2.2,0c-1.4-0.2-2.3-1-2.7-2.3c0-0.1-0.1-0.1-0.1-0.2c-0.1-0.5-0.1-1.1,0-1.6c0.2-0.7,0.2-1.4,0.3-2.1
		c0.3-1.9,0.5-3.8,0.8-5.7c0.2-1.8,0.5-3.7,0.7-5.5c0.1-0.5,0.1-1.1,0.2-1.6c0.1-0.6,0.4-1.2,0.8-1.7
		C298.9,109.1,298.9,108.9,299.1,109z"/>
	<path class="st1" d="M267.4,100.9c0.1-1.6,0.1-3.2,0.4-4.7c0.1-0.4,0.2-0.7,0.4-1.1c0.2-0.4,0.4-0.4,0.7,0c0.2,0.3,0.3,0.6,0.3,0.9
		c0.2,1.1,0.3,2.1,0.4,3.2c0.1,2.1,0,4.2-0.4,6.3c-0.1,0.3-0.2,0.7-0.3,0.9c-0.2,0.3-0.4,0.3-0.6,0s-0.3-0.7-0.4-1
		c-0.2-0.7-0.3-1.5-0.3-2.2C267.4,102.5,267.4,101.7,267.4,100.9z"/>
	<path class="st1" d="M335.7,100.8c0,1.5,0,3-0.3,4.5c-0.1,0.4-0.2,0.8-0.4,1.1c-0.1,0.1-0.2,0.3-0.4,0.3c-0.2,0-0.3-0.2-0.4-0.3
		c-0.2-0.4-0.3-0.8-0.4-1.2c-0.4-2.2-0.4-4.4-0.3-6.6c0.1-0.9,0.2-1.9,0.4-2.8c0.1-0.3,0.2-0.6,0.3-0.9c0.2-0.3,0.4-0.3,0.6,0
		c0.2,0.2,0.2,0.5,0.3,0.8c0.3,1,0.4,2,0.4,3C335.7,99.5,335.7,100.2,335.7,100.8z"/>
	<path class="st0" d="M304.7,95.6c-0.1,0-0.2,0-0.3,0c-1-0.1-1.9,0-2.9,0c-0.9,0-1.9,0-2.8,0c-0.2,0-0.4,0-0.4-0.3
		c0-0.6,0-1.2,0-1.9c2.1,0.9,4.2,0.9,6.4,0C304.8,94.1,304.8,94.9,304.7,95.6z"/>
	<path class="st0" d="M312.1,63.4c2-0.1,4,0,5.9,0.3c0.1,0,0.1,0.1,0.2,0.1c-0.4,0.3-0.7,0.6-1.1,0.8s-0.8-0.2-1.3-0.3
		c-1.2-0.3-2.4-0.6-3.6-0.8C312.3,63.4,312.2,63.4,312.1,63.4z"/>
	<path class="st0" d="M284.9,63.8c0.5-0.2,1.1-0.2,1.6-0.3c1.5-0.2,3-0.2,4.5-0.1c-1.3,0.2-2.5,0.5-3.7,0.9c-0.1,0-0.3,0.1-0.4,0.1
		c-0.6,0.4-1.1,0.2-1.6-0.3C285.2,64,285,63.9,284.9,63.8z"/>
	<path class="st1" d="M299.9,108.4c-0.2,0.2-0.4,0.4-0.7,0.6C299.3,108.5,299.6,108.5,299.9,108.4z"/>
	<path class="st1" d="M300.4,108c-0.2,0.1-0.3,0.3-0.6,0.3C300,108.1,300.2,108.2,300.4,108z"/>
	<path class="st1" d="M299.2,108.9c0,0.1,0,0.1-0.1,0.1C299,108.9,299.1,108.9,299.2,108.9z"/>
	<path class="st1" d="M316.8,136.4c0.7,0,1.5,0,2.2,0c0.3,0,0.4,0.1,0.4,0.4c0,0.7,0,1.4,0,2.2c1.3-1.6,2.5-3.2,3.8-4.8
		c1.2-1.6,2.5-3.2,3.7-4.8c0.2,0.2,0.1,0.3,0.1,0.5c0,2.9,0,5.8,0,8.7c0,5.3-3.2,9.9-8.2,11.7c-1.4,0.5-2.9,0.7-4.4,0.7
		c-8.6,0-17.2,0-25.7,0c-3.5,0-6.5-1.2-9-3.7c-2-2-3.2-4.5-3.5-7.3c-0.1-0.5-0.1-1-0.1-1.5c0-2.8,0-5.6,0-8.4c0-0.2,0-0.4,0-0.6
		c0.2,0,0.3,0.2,0.4,0.4c2.3,2.9,4.5,5.8,6.8,8.7c0.1,0.2,0.2,0.3,0.5,0.5c0-0.7,0-1.3,0-2c0-0.1,0-0.3,0-0.4c0-0.2,0.1-0.3,0.3-0.3
		c0.7,0,1.5,0,2.2,0c0,0.4,0,0.9,0,1.3c0,0.6,0.1,1.2,0.2,1.8c0.8,3.3,3.8,5.7,7.2,5.7c5.2,0,10.3,0,15.5,0c0.4,0,0.7,0,1.1-0.1
		c3.1-0.4,5.7-2.9,6.2-6C316.8,138.3,316.7,137.3,316.8,136.4z"/>
	<path class="st0" d="M316.8,136.4c0,0.9,0,1.8-0.1,2.7c-0.6,3.1-3.1,5.5-6.2,6c-0.4,0.1-0.7,0.1-1.1,0.1c-5.2,0-10.3,0-15.5,0
		c-3.4,0-6.4-2.3-7.2-5.7c-0.1-0.6-0.2-1.2-0.2-1.8c0-0.4,0-0.9,0-1.3c1.2,0,2.4,0,3.6,0c0.3,0,0.3,0.1,0.4,0.4
		c0.3,1.5,1.2,2.5,2.7,3c0.4,0.1,0.8,0.2,1.2,0.2c4.9,0,9.7,0,14.6,0c2,0,3.5-1.2,3.9-3.1c0.1-0.4,0.1-0.4,0.5-0.4
		C314.4,136.4,315.6,136.4,316.8,136.4z"/>
	<path class="st0" d="M353.4,180.4c-1.2,0-2.5,0-3.7,0c-0.4,0-0.4,0-0.4-0.4c0-2,0-4.1,0-6.1c0-0.4,0-0.4,0.4-0.4c2.5,0,4.9,0,7.4,0
		c0.4,0,0.4,0,0.4,0.4c0,2,0,4.1,0,6.1c0,0.4,0,0.4-0.4,0.4C355.9,180.4,354.6,180.4,353.4,180.4z"/>
	<path class="st0" d="M264.7,173.6c1.2,0,2.3,0,3.5,0c0.5,0,0.5,0,0.5,0.5s0,1,0,1.5c0,0.4,0,0.4-0.4,0.4c-1,0-2.1,0-3.1,0
		c-1.4,0-2.8,0-4.1,0c-0.6,0-0.5,0-0.5-0.5s0-1,0-1.5c0-0.3,0.1-0.4,0.4-0.4C262.2,173.6,263.5,173.6,264.7,173.6z"/>
	<path class="st0" d="M337.8,176c-1.2,0-2.4,0-3.6,0c-0.4,0-0.4,0-0.4-0.5s0-1,0-1.5s-0.1-0.5,0.5-0.5c1.5,0,2.9,0,4.4,0
		c0.9,0,1.9,0,2.8,0c0.4,0,0.4,0,0.4,0.5s0,1,0,1.5s0,0.4-0.5,0.4C340.2,176,339,176,337.8,176z"/>
	<path class="st2" d="M321.6,95.6c-5.3,0-10.6,0-15.9,0c-0.1,0-0.2,0-0.3,0c0.1,0,0.2,0,0.3,0c5.1,0,10.3,0,15.4,0
		C321.2,95.6,321.4,95.5,321.6,95.6z"/>
	<path class="st0" d="M301.6,91.3c-2.4,0-4.4-2-4.4-4.4s2-4.4,4.4-4.4s4.4,2,4.4,4.4S304,91.3,301.6,91.3z M301.6,84.4
		c-1.4,0-2.5,1.1-2.5,2.5s1.2,2.5,2.5,2.5s2.4-1.1,2.4-2.5C304.1,85.5,302.9,84.4,301.6,84.4z"/>
	<path class="st2" d="M301.6,84.4c1.4,0,2.5,1.1,2.5,2.5c0,1.3-1.1,2.4-2.4,2.5c-1.3,0-2.5-1.1-2.5-2.5
		C299.1,85.5,300.2,84.4,301.6,84.4z"/>
</g>
<g>
	<g id="XMLID_3_">
		<g id="XMLID_5_">
			<g id="XMLID_9_">
				<path class="st1" d="M60.9,250.4H48v-45.2h12.9V250.4z"/>
				<path class="st1" d="M83.7,233.7v16.7H70.8v-47.9l22.6,22.6l22.6-22.6v47.9h-12.9v-16.7l-9.7,9.7L83.7,233.7z"/>
				<path class="st1" d="M150.1,205.2c4,0,7.4,1.4,10.3,4.3c2.8,2.8,4.3,6.3,4.3,10.3s-1.4,7.4-4.3,10.3c-2.8,2.8-6.3,4.3-10.3,4.3
					h-11.3v16.2h-12.9v-45.2H150.1z M138.8,218.1v3.2h11.3c0.5,0,0.8-0.2,1.1-0.5c0.3-0.3,0.5-0.7,0.5-1.1s-0.2-0.8-0.5-1.1
					c-0.3-0.3-0.7-0.5-1.1-0.5H138.8z"/>
				<path class="st1" d="M213.3,205.2v12.9h-25.9v3.2h19.4v12.9h-19.4v3.2h25.9v12.9h-38.8v-45.2H213.3z"/>
				<path class="st1" d="M249,218.1v32.3H236v-32.3h-12.9v-12.9h38.8v12.9H249z"/>
				<path class="st1" d="M271.7,205.2h12.9v24.2c0,2.2,0.8,4.1,2.4,5.7c1.6,1.6,3.5,2.4,5.7,2.4s4.1-0.8,5.7-2.4
					c1.6-1.6,2.4-3.5,2.4-5.7v-24.2h12.9v24.2c0,5.8-2.1,10.7-6.2,14.8c-4.1,4.1-9.1,6.2-14.8,6.2s-10.7-2.1-14.8-6.2
					c-4.1-4.1-6.2-9.1-6.2-14.8V205.2z"/>
				<path class="st1" d="M323.6,250.4v-12.9h24.2c0.5,0,0.8-0.2,1.1-0.5c0.3-0.3,0.5-0.7,0.5-1.1c0-0.5-0.2-0.8-0.5-1.1
					c-0.3-0.3-0.7-0.5-1.1-0.5h-9.7c-4,0-7.4-1.4-10.3-4.3s-4.3-6.3-4.3-10.3s1.4-7.4,4.3-10.3c2.8-2.8,6.3-4.3,10.3-4.3h24.2v12.9
					h-24.2c-0.5,0-0.8,0.2-1.1,0.5c-0.3,0.3-0.5,0.7-0.5,1.1s0.2,0.8,0.5,1.1c0.3,0.3,0.7,0.5,1.1,0.5h9.7c4,0,7.4,1.4,10.3,4.3
					s4.3,6.3,4.3,10.3s-1.4,7.4-4.3,10.3s-6.3,4.3-10.3,4.3H323.6z"/>
				<path class="st1" d="M414.6,250.4h-12.9v-32.3h-6.5v-12.9h19.4V250.4z"/>
				<path class="st1" d="M443.9,250.4h-19.4v-12.9h19.4c2.7,0,5-0.9,6.9-2.8c0.1-0.1,0.2-0.3,0.4-0.4H439c-4,0-7.4-1.4-10.3-4.3
					s-4.3-6.3-4.3-10.3s1.4-7.4,4.3-10.3c2.8-2.8,6.3-4.3,10.3-4.3h4.8c6.2,0,11.6,2.2,16,6.6s6.6,9.7,6.6,16c0,6.2-2.2,11.6-6.6,16
					S450.1,250.4,443.9,250.4z M451.1,221.3c-0.1-0.1-0.2-0.3-0.4-0.4c-1.9-1.9-4.2-2.8-6.9-2.8H439c-0.5,0-0.8,0.2-1.1,0.5
					c-0.3,0.3-0.5,0.7-0.5,1.1s0.2,0.8,0.5,1.1c0.3,0.3,0.7,0.5,1.1,0.5H451.1z"/>
				<path class="st1" d="M489.3,250.4h-12.9v-12.9h12.9V250.4z"/>
				<path class="st1" d="M521.8,250.4c-6.2,0-11.6-2.2-16-6.6s-6.6-9.7-6.6-16c0-6.2,2.2-11.6,6.6-16s9.7-6.6,16-6.6
					c6.2,0,11.6,2.2,16,6.6s6.6,9.7,6.6,16c0,6.2-2.2,11.6-6.6,16S528,250.4,521.8,250.4z M521.8,237.5c2.7,0,5-0.9,6.9-2.8
					c1.9-1.9,2.8-4.2,2.8-6.9c0-2.7-0.9-5-2.8-6.9c-1.9-1.9-4.2-2.8-6.9-2.8c-2.7,0-5,0.9-6.9,2.8c-1.9,1.9-2.8,4.2-2.8,6.9
					c0,2.7,0.9,5,2.8,6.9C516.8,236.5,519.1,237.5,521.8,237.5z"/>
			</g>
			<polyline id="XMLID_8_" class="st7" points="29.3,237.8 29.3,195.8 560.5,195.8 560.5,237.8 			"/>
			<polyline id="XMLID_66_" class="st6" points="5.8,233.8 5.8,282.7 585.8,282.7 585.8,233.8 			"/>
			<circle id="XMLID_7_" class="st8" cx="29.3" cy="237.8" r="11.6"/>
			<circle id="XMLID_6_" class="st8" cx="585.2" cy="239" r="11.6"/>
		</g>
		<g id="XMLID_4_">
			<path class="st1" d="M145.5,262.2H141v-1.6h10.8v1.6h-4.5v13.2h-1.9V262.2z"/>
			<path class="st1" d="M152.9,270.4c0,2.6,1.7,3.7,3.6,3.7c1.4,0,2.2-0.2,2.9-0.5l0.3,1.4c-0.7,0.3-1.8,0.7-3.5,0.7
				c-3.2,0-5.2-2.2-5.2-5.4s1.9-5.7,4.9-5.7c3.4,0,4.3,3.1,4.3,5c0,0.4,0,0.7-0.1,0.9H152.9z M158.5,269c0-1.2-0.5-3.1-2.6-3.1
				c-1.9,0-2.8,1.8-2.9,3.1H158.5z"/>
			<path class="st1" d="M170.2,275c-0.5,0.3-1.6,0.6-3,0.6c-3.2,0-5.2-2.2-5.2-5.4c0-3.3,2.2-5.6,5.6-5.6c1.1,0,2.1,0.3,2.6,0.5
				l-0.4,1.5c-0.5-0.3-1.2-0.5-2.2-0.5c-2.4,0-3.7,1.8-3.7,4c0,2.5,1.6,4,3.6,4c1.1,0,1.8-0.3,2.3-0.5L170.2,275z"/>
			<path class="st1" d="M172.4,259.8h1.9v6.6h0c0.3-0.5,0.8-1,1.4-1.4c0.6-0.3,1.2-0.5,2-0.5c1.4,0,3.7,0.9,3.7,4.5v6.3h-1.9v-6.1
				c0-1.7-0.6-3.2-2.4-3.2c-1.2,0-2.2,0.9-2.6,1.9c-0.1,0.3-0.1,0.5-0.1,0.9v6.4h-1.9V259.8z"/>
			<path class="st1" d="M184.7,275.4v-9.2h-1.5v-1.5h1.5v-0.5c0-1.5,0.3-2.9,1.2-3.7c0.7-0.7,1.7-1,2.6-1c0.7,0,1.3,0.2,1.6,0.3
				l-0.3,1.5c-0.3-0.1-0.7-0.2-1.2-0.2c-1.6,0-2,1.5-2,3.1v0.6h2.5v1.5h-2.5v9.2H184.7z"/>
			<path class="st1" d="M199.6,272.5c0,1.1,0,2.1,0.1,2.9H198l-0.1-1.7h0c-0.5,0.9-1.6,2-3.5,2c-1.6,0-3.6-0.9-3.6-4.7v-6.2h1.9v5.9
				c0,2,0.6,3.4,2.3,3.4c1.3,0,2.2-0.9,2.5-1.8c0.1-0.3,0.2-0.6,0.2-1v-6.5h1.9V272.5z"/>
			<path class="st1" d="M202.5,273.4c0.6,0.4,1.6,0.8,2.5,0.8c1.4,0,2-0.7,2-1.6c0-0.9-0.5-1.4-2-2c-1.9-0.7-2.8-1.7-2.8-3
				c0-1.7,1.4-3.1,3.6-3.1c1.1,0,2,0.3,2.6,0.7l-0.5,1.4c-0.4-0.3-1.2-0.6-2.1-0.6c-1.1,0-1.8,0.7-1.8,1.4c0,0.9,0.6,1.3,2,1.8
				c1.8,0.7,2.8,1.6,2.8,3.2c0,1.9-1.4,3.2-3.9,3.2c-1.1,0-2.2-0.3-2.9-0.7L202.5,273.4z"/>
			<path class="st1" d="M213.5,261.8c0,0.7-0.5,1.2-1.2,1.2c-0.7,0-1.1-0.5-1.1-1.2c0-0.7,0.5-1.2,1.2-1.2
				C213,260.5,213.5,261.1,213.5,261.8z M211.3,275.4v-10.6h1.9v10.6H211.3z"/>
			<path class="st1" d="M225.9,270c0,3.9-2.7,5.6-5.2,5.6c-2.8,0-5-2.1-5-5.5c0-3.6,2.3-5.6,5.2-5.6
				C223.9,264.5,225.9,266.7,225.9,270z M217.6,270.1c0,2.3,1.3,4.1,3.2,4.1c1.8,0,3.2-1.7,3.2-4.1c0-1.8-0.9-4.1-3.1-4.1
				S217.6,268.1,217.6,270.1z"/>
			<path class="st1" d="M228.3,267.6c0-1.1,0-2-0.1-2.9h1.7l0.1,1.8h0c0.5-1,1.7-2,3.5-2c1.5,0,3.7,0.9,3.7,4.5v6.3h-1.9v-6.1
				c0-1.7-0.6-3.1-2.4-3.1c-1.3,0-2.2,0.9-2.6,2c-0.1,0.2-0.1,0.6-0.1,0.9v6.4h-1.9V267.6z"/>
			<path class="st1" d="M249.4,268.7v1.4H244v-1.4H249.4z"/>
			<path class="st1" d="M256.3,260.8c1-0.2,2.3-0.3,3.6-0.3c2,0,3.3,0.4,4.2,1.2c0.7,0.7,1.1,1.7,1.1,2.8c0,2-1.2,3.3-2.8,3.8v0.1
				c1.1,0.4,1.8,1.4,2.1,3c0.5,2.1,0.8,3.5,1.1,4.1h-2c-0.2-0.4-0.6-1.7-1-3.5c-0.4-2-1.2-2.8-2.9-2.9h-1.8v6.4h-1.9V260.8z
				 M258.2,267.5h1.9c2,0,3.3-1.1,3.3-2.8c0-1.9-1.4-2.7-3.4-2.8c-0.9,0-1.6,0.1-1.9,0.2V267.5z"/>
			<path class="st1" d="M269,270.4c0,2.6,1.7,3.7,3.6,3.7c1.4,0,2.2-0.2,2.9-0.5l0.3,1.4c-0.7,0.3-1.8,0.7-3.5,0.7
				c-3.2,0-5.2-2.2-5.2-5.4s1.9-5.7,4.9-5.7c3.4,0,4.3,3.1,4.3,5c0,0.4,0,0.7-0.1,0.9H269z M274.6,269c0-1.2-0.5-3.1-2.6-3.1
				c-1.9,0-2.8,1.8-2.9,3.1H274.6z"/>
			<path class="st1" d="M287.9,259.8v12.9c0,0.9,0,2,0.1,2.7h-1.7l-0.1-1.8h0c-0.6,1.2-1.9,2.1-3.6,2.1c-2.5,0-4.5-2.2-4.5-5.4
				c0-3.5,2.1-5.7,4.7-5.7c1.6,0,2.7,0.8,3.2,1.6h0v-6.4H287.9z M286,269.1c0-0.2,0-0.6-0.1-0.8c-0.3-1.2-1.3-2.2-2.8-2.2
				c-2,0-3.1,1.8-3.1,4.1c0,2.2,1,3.9,3.1,3.9c1.3,0,2.5-0.9,2.8-2.3c0.1-0.3,0.1-0.5,0.1-0.8V269.1z"/>
			<path class="st1" d="M292.1,270.4c0,2.6,1.7,3.7,3.6,3.7c1.4,0,2.2-0.2,2.9-0.5l0.3,1.4c-0.7,0.3-1.8,0.7-3.5,0.7
				c-3.2,0-5.2-2.2-5.2-5.4s1.9-5.7,4.9-5.7c3.4,0,4.3,3.1,4.3,5c0,0.4,0,0.7-0.1,0.9H292.1z M297.7,269c0-1.2-0.5-3.1-2.6-3.1
				c-1.9,0-2.8,1.8-2.9,3.1H297.7z"/>
			<path class="st1" d="M302.1,275.4v-9.2h-1.5v-1.5h1.5v-0.6c0-2.8,1.6-4.6,4.6-4.6c1,0,2.1,0.3,2.7,0.7l-0.5,1.5
				c-0.5-0.3-1.3-0.6-2.2-0.6c-2,0-2.6,1.4-2.6,3.1v0.5h6.1v10.6h-1.9v-9.2H304v9.2H302.1z"/>
			<path class="st1" d="M313.3,267.6c0-1.1,0-2-0.1-2.9h1.7l0.1,1.8h0c0.5-1,1.7-2,3.5-2c1.5,0,3.7,0.9,3.7,4.5v6.3h-1.9v-6.1
				c0-1.7-0.6-3.1-2.4-3.1c-1.3,0-2.2,0.9-2.6,2c-0.1,0.2-0.1,0.6-0.1,0.9v6.4h-1.9V267.6z"/>
			<path class="st1" d="M327.4,261.8c0,0.7-0.5,1.2-1.2,1.2c-0.7,0-1.1-0.5-1.1-1.2c0-0.7,0.5-1.2,1.2-1.2
				C327,260.5,327.4,261.1,327.4,261.8z M325.3,275.4v-10.6h1.9v10.6H325.3z"/>
			<path class="st1" d="M330.4,267.6c0-1.1,0-2-0.1-2.9h1.7l0.1,1.8h0c0.5-1,1.7-2,3.5-2c1.5,0,3.7,0.9,3.7,4.5v6.3h-1.9v-6.1
				c0-1.7-0.6-3.1-2.4-3.1c-1.3,0-2.2,0.9-2.6,2c-0.1,0.2-0.1,0.6-0.1,0.9v6.4h-1.9V267.6z"/>
			<path class="st1" d="M351.4,264.7c0,0.8-0.1,1.6-0.1,2.9v6.2c0,2.4-0.5,3.9-1.5,4.9c-1,1-2.5,1.3-3.8,1.3c-1.3,0-2.6-0.3-3.5-0.9
				l0.5-1.5c0.7,0.4,1.8,0.8,3.1,0.8c2,0,3.4-1,3.4-3.7v-1.2h0c-0.6,1-1.7,1.8-3.3,1.8c-2.6,0-4.5-2.2-4.5-5.2
				c0-3.6,2.3-5.6,4.7-5.6c1.8,0,2.8,1,3.3,1.8h0l0.1-1.6H351.4z M349.5,268.9c0-0.3,0-0.6-0.1-0.9c-0.3-1.1-1.3-2-2.7-2
				c-1.8,0-3.1,1.6-3.1,4c0,2.1,1,3.8,3.1,3.8c1.2,0,2.2-0.7,2.6-2c0.1-0.3,0.2-0.7,0.2-1V268.9z"/>
			<path class="st1" d="M359.2,260.7c0.9-0.2,2.1-0.3,3.6-0.3c1.9,0,3.2,0.4,4.1,1.2c0.8,0.7,1.3,1.8,1.3,3.1c0,1.3-0.4,2.4-1.1,3.2
				c-1,1.1-2.6,1.6-4.5,1.6c-0.6,0-1.1,0-1.5-0.1v5.9h-1.9V260.7z M361.1,267.9c0.4,0.1,0.9,0.2,1.6,0.2c2.3,0,3.7-1.1,3.7-3.2
				c0-2-1.4-2.9-3.4-2.9c-0.8,0-1.5,0.1-1.8,0.2V267.9z"/>
			<path class="st1" d="M379.6,270c0,3.9-2.7,5.6-5.2,5.6c-2.8,0-5-2.1-5-5.5c0-3.6,2.3-5.6,5.2-5.6
				C377.6,264.5,379.6,266.7,379.6,270z M371.3,270.1c0,2.3,1.3,4.1,3.2,4.1c1.8,0,3.2-1.7,3.2-4.1c0-1.8-0.9-4.1-3.1-4.1
				S371.3,268.1,371.3,270.1z"/>
			<path class="st1" d="M381.7,273.4c0.6,0.4,1.6,0.8,2.5,0.8c1.4,0,2-0.7,2-1.6c0-0.9-0.5-1.4-2-2c-1.9-0.7-2.8-1.7-2.8-3
				c0-1.7,1.4-3.1,3.6-3.1c1.1,0,2,0.3,2.6,0.7l-0.5,1.4c-0.4-0.3-1.2-0.6-2.1-0.6c-1.1,0-1.8,0.7-1.8,1.4c0,0.9,0.6,1.3,2,1.8
				c1.8,0.7,2.8,1.6,2.8,3.2c0,1.9-1.4,3.2-3.9,3.2c-1.1,0-2.2-0.3-2.9-0.7L381.7,273.4z"/>
			<path class="st1" d="M390.3,273.4c0.6,0.4,1.6,0.8,2.5,0.8c1.4,0,2-0.7,2-1.6c0-0.9-0.5-1.4-2-2c-1.9-0.7-2.8-1.7-2.8-3
				c0-1.7,1.4-3.1,3.6-3.1c1.1,0,2,0.3,2.6,0.7l-0.5,1.4c-0.4-0.3-1.2-0.6-2.1-0.6c-1.1,0-1.8,0.7-1.8,1.4c0,0.9,0.6,1.3,2,1.8
				c1.8,0.7,2.8,1.6,2.8,3.2c0,1.9-1.4,3.2-3.9,3.2c-1.1,0-2.2-0.3-2.9-0.7L390.3,273.4z"/>
			<path class="st1" d="M401.3,261.8c0,0.7-0.5,1.2-1.2,1.2c-0.7,0-1.1-0.5-1.1-1.2c0-0.7,0.5-1.2,1.2-1.2
				C400.8,260.5,401.3,261.1,401.3,261.8z M399.2,275.4v-10.6h1.9v10.6H399.2z"/>
			<path class="st1" d="M404.2,275.4c0-0.7,0.1-1.8,0.1-2.7v-12.9h1.9v6.7h0c0.7-1.2,1.9-2,3.6-2c2.6,0,4.4,2.2,4.4,5.4
				c0,3.8-2.4,5.7-4.7,5.7c-1.5,0-2.7-0.6-3.5-2h-0.1l-0.1,1.8H404.2z M406.1,271.1c0,0.2,0,0.5,0.1,0.7c0.4,1.3,1.5,2.3,2.9,2.3
				c2,0,3.2-1.6,3.2-4.1c0-2.1-1.1-4-3.1-4c-1.3,0-2.5,0.9-2.9,2.4c0,0.2-0.1,0.5-0.1,0.8V271.1z"/>
			<path class="st1" d="M418.7,261.8c0,0.7-0.5,1.2-1.2,1.2c-0.7,0-1.1-0.5-1.1-1.2c0-0.7,0.5-1.2,1.2-1.2
				C418.3,260.5,418.7,261.1,418.7,261.8z M416.6,275.4v-10.6h1.9v10.6H416.6z"/>
			<path class="st1" d="M421.7,259.8h1.9v15.6h-1.9V259.8z"/>
			<path class="st1" d="M428.9,261.8c0,0.7-0.5,1.2-1.2,1.2c-0.7,0-1.1-0.5-1.1-1.2c0-0.7,0.5-1.2,1.2-1.2
				C428.5,260.5,428.9,261.1,428.9,261.8z M426.8,275.4v-10.6h1.9v10.6H426.8z"/>
			<path class="st1" d="M434.2,261.7v3.1h2.7v1.5h-2.7v5.7c0,1.3,0.4,2.1,1.4,2.1c0.5,0,0.9-0.1,1.1-0.1l0.1,1.5
				c-0.4,0.2-1,0.3-1.7,0.3c-0.9,0-1.6-0.3-2.1-0.8c-0.5-0.6-0.7-1.5-0.7-2.8v-5.8h-1.6v-1.5h1.6v-2.5L434.2,261.7z"/>
			<path class="st1" d="M441.2,261.8c0,0.7-0.5,1.2-1.2,1.2c-0.7,0-1.1-0.5-1.1-1.2c0-0.7,0.5-1.2,1.2-1.2
				C440.7,260.5,441.2,261.1,441.2,261.8z M439,275.4v-10.6h1.9v10.6H439z"/>
			<path class="st1" d="M445.2,270.4c0,2.6,1.7,3.7,3.6,3.7c1.4,0,2.2-0.2,2.9-0.5l0.3,1.4c-0.7,0.3-1.8,0.7-3.5,0.7
				c-3.2,0-5.2-2.2-5.2-5.4s1.9-5.7,4.9-5.7c3.4,0,4.3,3.1,4.3,5c0,0.4,0,0.7-0.1,0.9H445.2z M450.8,269c0-1.2-0.5-3.1-2.6-3.1
				c-1.9,0-2.8,1.8-2.9,3.1H450.8z"/>
			<path class="st1" d="M454.7,273.4c0.6,0.4,1.6,0.8,2.5,0.8c1.4,0,2-0.7,2-1.6c0-0.9-0.5-1.4-2-2c-1.9-0.7-2.8-1.7-2.8-3
				c0-1.7,1.4-3.1,3.6-3.1c1.1,0,2,0.3,2.6,0.7l-0.5,1.4c-0.4-0.3-1.2-0.6-2.1-0.6c-1.1,0-1.8,0.7-1.8,1.4c0,0.9,0.6,1.3,2,1.8
				c1.8,0.7,2.8,1.6,2.8,3.2c0,1.9-1.4,3.2-3.9,3.2c-1.1,0-2.2-0.3-2.9-0.7L454.7,273.4z"/>
		</g>
		<g>
			<g>
				<path class="st1" d="M422.2,288.7c0.7-0.1,1.6-0.2,2.3-0.2c0.8,0,2,0.2,2.7,1c0.5,0.6,0.8,1.4,0.8,2.2c0,1.6-0.7,2.9-1.5,3.7
					c-0.8,0.8-2.1,1.2-3.2,1.2c-0.3,0-0.5,0-0.7,0l-1,5h-1.9L422.2,288.7z M422.9,294.9c0.2,0,0.4,0,0.6,0c1.9,0,2.5-1.8,2.5-3.1
					c0-1-0.4-1.7-1.6-1.7c-0.2,0-0.5,0-0.7,0.1L422.9,294.9z"/>
				<path class="st1" d="M434.5,295.2c0,2.7-1.4,6.5-4.2,6.5c-2.1,0-2.6-1.7-2.6-3.2c0-2.9,1.6-6.5,4.4-6.5
					C434.2,292,434.5,293.9,434.5,295.2z M429.6,298.3c0,0.8,0.1,1.8,0.9,1.8c1.4,0,2.1-3.5,2.1-5.2c0-0.8-0.2-1.5-0.8-1.5
					C430.4,293.5,429.6,296.6,429.6,298.3z"/>
				<path class="st1" d="M437.7,292.2l-0.1,4.6c-0.1,1.2-0.1,1.8-0.2,2.6h0.1c0.2-0.8,0.5-1.5,0.9-2.5l2-4.8h1.5l0.1,4.7
					c0,1.2,0,1.7-0.1,2.5h0.1c0.2-0.8,0.4-1.5,0.8-2.7l1.7-4.6h1.9l-4.1,9.4h-1.7l-0.2-4.2c0-0.8,0-1.7,0.1-2.7h-0.1
					c-0.3,1-0.6,1.9-0.9,2.7l-1.8,4.2h-1.7l-0.4-9.4H437.7z"/>
				<path class="st1" d="M451.4,301.1c-0.8,0.4-1.5,0.5-2.5,0.5c-2.2,0-2.9-1.5-2.9-3.4c0-2.6,1.5-6.2,4.3-6.2
					c1.6,0,2.2,1.2,2.2,2.4c0,2.4-2,3.4-4.6,3.3c0,0.3,0,1,0.1,1.4c0.2,0.6,0.7,0.9,1.4,0.9c0.8,0,1.3-0.2,1.8-0.5L451.4,301.1z
					 M450,293.6c-0.8,0-1.5,1-1.9,2.6c1.4,0,2.7-0.5,2.7-1.7C450.7,293.9,450.5,293.6,450,293.6z"/>
				<path class="st1" d="M452.6,301.5l1.2-6.3c0.2-1.1,0.3-2.2,0.4-3h1.7c0,0.5-0.1,1-0.1,1.6h0.1c0.6-1.2,1.5-1.8,2.3-1.8
					c0.1,0,0.2,0,0.3,0l-0.4,2c-0.1,0-0.2,0-0.3,0c-1.1,0-2.1,1.4-2.4,2.9l-0.9,4.6H452.6z"/>
				<path class="st1" d="M463.3,301.1c-0.8,0.4-1.5,0.5-2.5,0.5c-2.2,0-2.9-1.5-2.9-3.4c0-2.6,1.5-6.2,4.3-6.2
					c1.6,0,2.2,1.2,2.2,2.4c0,2.4-2,3.4-4.6,3.3c0,0.3,0,1,0.1,1.4c0.2,0.6,0.7,0.9,1.4,0.9c0.8,0,1.3-0.2,1.8-0.5L463.3,301.1z
					 M462,293.6c-0.8,0-1.5,1-1.9,2.6c1.4,0,2.7-0.5,2.7-1.7C462.7,293.9,462.5,293.6,462,293.6z"/>
				<path class="st1" d="M473,288.2l-1.9,10.1c-0.2,1-0.4,2.2-0.4,3.2H469l0.1-1.4h0c-0.5,1-1.4,1.6-2.2,1.6c-1.3,0-2-1.1-2-2.9
					c0-3.2,1.7-6.8,4.5-6.8c0.4,0,0.7,0.1,0.9,0.3l0.8-4.1H473z M470,293.8c-0.1-0.2-0.4-0.3-0.7-0.3c-1.6,0-2.5,3.2-2.5,4.9
					c0,1,0.2,1.6,0.9,1.6c0.6,0,1.3-0.8,1.6-2.2L470,293.8z"/>
				<path class="st1" d="M479.6,288.2l-1,5.1h0c0.6-0.9,1.3-1.3,2.1-1.3c1.6,0,1.9,1.6,1.9,2.7c0,3.2-1.7,7-5,7
					c-1.5,0-2.1-0.7-2.1-1.9c0-0.4,0.1-0.9,0.1-1.2l2-10.4H479.6z M477.6,298.4c-0.1,0.3-0.1,0.6-0.1,0.9c0,0.5,0.2,0.9,0.7,0.9
					c1.6,0,2.4-3.5,2.4-4.9c0-0.9-0.1-1.6-0.8-1.6c-0.7,0-1.4,1-1.7,2.2L477.6,298.4z"/>
				<path class="st1" d="M485.8,292.2l0.2,4.8c0,0.9,0,1.5,0.1,2.3h0c0.2-0.8,0.4-1.5,0.8-2.4l1.7-4.7h2l-3.1,7.5
					c-0.9,2.1-1.9,3.9-3.1,5c-0.6,0.5-1.2,0.9-1.5,1l-0.8-1.6c0.4-0.2,0.9-0.5,1.3-0.8c0.6-0.4,1.1-1.1,1.4-1.7
					c0.1-0.2,0.1-0.3,0.1-0.5l-0.9-8.8H485.8z"/>
				<path class="st1" d="M494.1,288.7c0.7-0.2,1.9-0.3,3.1-0.3c1.7,0,2.7,0.3,3.6,0.9c0.7,0.5,1.1,1.3,1.1,2.3
					c0,1.2-0.8,2.3-2.2,2.8v0c1.2,0.3,2.7,1.3,2.7,3.2c0,1.1-0.4,2-1.1,2.6c-0.9,0.8-2.4,1.2-4.5,1.2c-1.2,0-2-0.1-2.6-0.2V288.7z
					 M495.7,294h1.5c1.8,0,2.8-0.9,2.8-2.2c0-1.5-1.2-2.1-2.8-2.1c-0.8,0-1.2,0.1-1.5,0.1V294z M495.7,300.2
					c0.3,0.1,0.8,0.1,1.4,0.1c1.7,0,3.3-0.6,3.3-2.5c0-1.8-1.5-2.5-3.3-2.5h-1.4V300.2z"/>
				<path class="st1" d="M511.2,295.4h-5v4.7h5.6v1.4h-7.3v-13h7v1.4h-5.3v4.1h5V295.4z"/>
				<path class="st1" d="M513.7,299.5c0.7,0.5,1.8,0.8,3,0.8c1.7,0,2.7-0.9,2.7-2.2c0-1.2-0.7-1.9-2.4-2.6c-2.1-0.7-3.4-1.8-3.4-3.7
					c0-2,1.7-3.5,4.2-3.5c1.3,0,2.3,0.3,2.9,0.6l-0.5,1.4c-0.4-0.2-1.3-0.6-2.5-0.6c-1.8,0-2.4,1.1-2.4,1.9c0,1.2,0.8,1.8,2.6,2.5
					c2.2,0.8,3.3,1.9,3.3,3.8c0,2-1.5,3.7-4.5,3.7c-1.2,0-2.6-0.4-3.3-0.8L513.7,299.5z"/>
				<path class="st1" d="M532.4,301.1c-0.6,0.3-1.8,0.6-3.4,0.6c-3.7,0-6.4-2.3-6.4-6.6c0-4.1,2.7-6.8,6.8-6.8
					c1.6,0,2.6,0.3,3.1,0.6l-0.4,1.4c-0.6-0.3-1.5-0.5-2.6-0.5c-3,0-5.1,1.9-5.1,5.3c0,3.2,1.8,5.2,5,5.2c1,0,2.1-0.2,2.7-0.5
					L532.4,301.1z"/>
				<path class="st1" d="M545.2,294.9c0,4.5-2.7,6.8-6,6.8c-3.4,0-5.8-2.7-5.8-6.6c0-4.1,2.6-6.8,6-6.8
					C542.9,288.4,545.2,291.1,545.2,294.9z M535.2,295.1c0,2.8,1.5,5.2,4.1,5.2c2.7,0,4.2-2.4,4.2-5.4c0-2.6-1.3-5.3-4.1-5.3
					C536.5,289.7,535.2,292.3,535.2,295.1z"/>
				<path class="st1" d="M558.3,295.8c-0.1-1.8-0.2-4-0.2-5.6H558c-0.4,1.5-1,3.1-1.6,4.9l-2.3,6.3h-1.3l-2.1-6.2
					c-0.6-1.8-1.1-3.5-1.5-5h0c0,1.6-0.1,3.8-0.3,5.7l-0.3,5.6H547l0.9-13h2.1l2.2,6.3c0.5,1.6,1,3,1.3,4.4h0.1
					c0.3-1.3,0.8-2.7,1.4-4.4l2.3-6.3h2.1l0.8,13h-1.6L558.3,295.8z"/>
			</g>
		</g>
	</g>
	<g>
		<g>
			<g>
				<path class="st1" d="M123.9,171.8c0.7-0.1,1.6-0.2,2.3-0.2c0.8,0,2,0.2,2.7,1c0.5,0.6,0.8,1.4,0.8,2.2c0,1.6-0.7,2.9-1.5,3.7
					c-0.8,0.8-2.1,1.2-3.2,1.2c-0.3,0-0.5,0-0.7,0l-1,5h-1.9L123.9,171.8z M124.6,177.9c0.2,0,0.4,0,0.6,0c1.9,0,2.5-1.8,2.5-3.1
					c0-1-0.4-1.7-1.6-1.7c-0.2,0-0.5,0-0.7,0.1L124.6,177.9z"/>
				<path class="st1" d="M129.3,184.6l1.2-6.3c0.2-1.1,0.3-2.2,0.4-3h1.7c0,0.5-0.1,1-0.1,1.6h0.1c0.6-1.2,1.5-1.8,2.3-1.8
					c0.1,0,0.2,0,0.3,0l-0.4,2c-0.1,0-0.2,0-0.3,0c-1.1,0-2.1,1.4-2.4,2.9l-0.9,4.6H129.3z"/>
				<path class="st1" d="M140.1,184.1c-0.8,0.4-1.5,0.5-2.5,0.5c-2.2,0-2.9-1.5-2.9-3.4c0-2.6,1.5-6.2,4.3-6.2
					c1.6,0,2.2,1.2,2.2,2.4c0,2.4-2,3.4-4.6,3.3c0,0.3,0,1,0.1,1.4c0.2,0.6,0.7,0.9,1.4,0.9c0.8,0,1.3-0.2,1.8-0.5L140.1,184.1z
					 M138.8,176.6c-0.8,0-1.5,1-1.9,2.6c1.4,0,2.7-0.5,2.7-1.7C139.5,177,139.3,176.6,138.8,176.6z"/>
				<path class="st1" d="M141.5,182.8c0.3,0.2,0.8,0.4,1.5,0.4c0.8,0,1.3-0.6,1.3-1.3c0-0.7-0.3-1.1-0.9-1.6
					c-0.7-0.6-1.2-1.4-1.2-2.3c0-1.7,1.3-3,3.2-3c0.7,0,1.3,0.2,1.6,0.4l-0.5,1.4c-0.3-0.2-0.7-0.3-1.1-0.3c-0.8,0-1.4,0.5-1.4,1.2
					c0,0.6,0.3,0.9,0.8,1.3c0.9,0.7,1.4,1.6,1.4,2.5c0,2-1.4,3.1-3.3,3.1c-0.8,0-1.6-0.3-1.9-0.5L141.5,182.8z"/>
				<path class="st1" d="M152.8,184.1c-0.8,0.4-1.5,0.5-2.5,0.5c-2.2,0-2.9-1.5-2.9-3.4c0-2.6,1.5-6.2,4.3-6.2
					c1.6,0,2.2,1.2,2.2,2.4c0,2.4-2,3.4-4.6,3.3c0,0.3,0,1,0.1,1.4c0.2,0.6,0.7,0.9,1.4,0.9c0.8,0,1.3-0.2,1.8-0.5L152.8,184.1z
					 M151.5,176.6c-0.8,0-1.5,1-1.9,2.6c1.4,0,2.7-0.5,2.7-1.7C152.2,177,152,176.6,151.5,176.6z"/>
				<path class="st1" d="M154,184.6l1.2-6.2c0.2-1.2,0.4-2.3,0.5-3.1h1.7l-0.1,1.3h0c0.7-1,1.6-1.5,2.5-1.5c1.3,0,1.7,0.9,1.7,2
					c0,0.5-0.1,1.1-0.2,1.7l-1.1,5.9h-1.9l1.1-5.9c0.1-0.4,0.1-0.7,0.1-1.1c0-0.5-0.2-0.8-0.7-0.8c-0.7,0-1.6,1.1-1.9,2.8l-1,5.1
					H154z"/>
				<path class="st1" d="M166.5,172.7l-0.5,2.5h1.8l-0.3,1.4h-1.8l-0.9,4.8c-0.1,0.4-0.1,0.8-0.1,1c0,0.5,0.2,0.8,0.7,0.8
					c0.2,0,0.4,0,0.6,0l-0.2,1.5c-0.4,0.1-0.8,0.1-1.2,0.1c-1.2,0-1.9-0.7-1.9-1.8c0-0.4,0.1-0.9,0.2-1.5l0.9-4.8h-1.1l0.3-1.4h1.1
					l0.4-2L166.5,172.7z"/>
				<path class="st1" d="M167.4,182.8c0.3,0.2,0.8,0.4,1.5,0.4c0.8,0,1.3-0.6,1.3-1.3c0-0.7-0.3-1.1-0.9-1.6
					c-0.7-0.6-1.2-1.4-1.2-2.3c0-1.7,1.3-3,3.2-3c0.7,0,1.3,0.2,1.6,0.4l-0.5,1.4c-0.3-0.2-0.7-0.3-1.1-0.3c-0.8,0-1.4,0.5-1.4,1.2
					c0,0.6,0.3,0.9,0.8,1.3c0.9,0.7,1.4,1.6,1.4,2.5c0,2-1.4,3.1-3.3,3.1c-0.8,0-1.6-0.3-1.9-0.5L167.4,182.8z"/>
			</g>
			<g>
				<path class="st9" d="M31.5,178.6c0,1.9,0,3.7,0,5.5c-1.1,0-2.2,0-3.4,0c0-6,0-11.9,0-17.9c2.2,0,4.4-0.2,6.5,0
					c2.6,0.3,4.4,1.9,5.1,4.4c0.7,2.5,0,4.7-2,6.5c-0.1,0.1-0.2,0.2-0.3,0.3c1.7,2.2,3.3,4.4,5,6.7c-1.5,0-2.8,0-4.2,0
					c-0.2,0-0.3-0.3-0.5-0.4c-1.1-1.5-2.3-3-3.3-4.5c-0.3-0.5-0.7-0.7-1.3-0.6C32.6,178.7,32.1,178.6,31.5,178.6z M31.5,175.2
					c0.9,0,1.6,0.1,2.4,0c1.4-0.1,2.5-1.3,2.6-2.7c0-1.4-0.9-2.6-2.3-2.8c-0.9-0.1-1.8,0-2.7,0C31.5,171.5,31.5,173.3,31.5,175.2z"
					/>
				<path class="st9" d="M53.8,184.1c-2.7,0.2-3.1,0.1-3.4-0.5c-1.3,0.8-2.8,1.1-4.3,0.7c-1.3-0.3-2.4-1-3.2-2
					c-1.5-1.7-2.1-3.7-2-5.9c0.1-2,0.8-3.7,2.1-5.2c1.5-1.6,4.4-2.8,7.1-1.2c0.5-0.1,0.8-0.3,1.1-0.3c0.8,0,1.6,0,2.5,0
					C53.8,174.6,53.8,179.3,53.8,184.1z M50.8,176.9c-0.3-0.8-0.4-1.7-0.9-2.5c-0.9-1.7-3-2-4.3-0.7c-1.7,1.6-1.7,5,0.1,6.6
					c1.1,1,2.7,1,3.8-0.1C50.3,179.3,50.6,178.2,50.8,176.9z"/>
				<path class="st9" d="M62,176.5c2.2,2.6,4.3,5,6.5,7.7c-1.6,0-3,0-4.4,0c-0.2,0-0.5-0.3-0.6-0.5c-1.3-1.5-2.5-3.1-3.8-4.6
					c-0.2-0.2-0.3-0.4-0.6-0.7c0,2,0,3.9,0,5.8c-1.2,0-2.2,0-3.4,0c0-6.4,0-12.7,0-19.1c1.1,0,2.2,0,3.4,0c0,3.2,0,6.3,0,9.7
					c1.3-1.6,2.4-3,3.5-4.4c0.3-0.4,0.6-0.5,1.1-0.5c1.3,0,2.5,0,4,0C65.7,172.1,63.9,174.3,62,176.5z"/>
				<path class="st9" d="M99.7,179.7c1,0.6,1.9,1.1,2.8,1.6c-2.3,3.9-8.2,4.8-11.3,0.1c-1.8-2.7-1.7-6.6,0.1-9.2
					c1.5-2.2,4-3.2,6.6-2.6c2.5,0.6,4.5,2.9,4.8,5.6c0.1,0.9,0,1.8,0,2.8c-3.1,0-6.2,0-9.3,0c-0.1,1.3,0.9,2.7,2.2,3.2
					C97,181.8,98.1,181.4,99.7,179.7z M99.2,175.1c-0.2-1.5-1.3-2.5-2.8-2.5c-1.5,0-2.7,1.1-2.9,2.5
					C95.4,175.1,97.3,175.1,99.2,175.1z"/>
				<path class="st9" d="M45.7,186.9c17.3,0,34.5,0,51.7,0c0,0,0,0,0,0.1c-0.2,0.1-0.5,0.1-0.7,0.2c-9.3,0.8-18.6,1.6-27.9,2.4
					c-6,0.5-11.9,1-17.9,1.6c-0.7,0.1-1.2-0.1-1.7-0.6c-1-1.1-2-2.1-3.1-3.1C46,187.2,45.9,187.1,45.7,186.9z"/>
				<path class="st9" d="M76.8,169.8c1.1,0,2.2,0,3.3,0c0,4.8,0,9.5,0,14.4c-1.2-0.1-2.3,0.2-3.6-0.3c-2.1,1.1-4.3,0.9-6.3-0.8
					c-1.2-1.1-1.9-2.5-1.9-4.1c-0.1-3,0-6.1,0-9.1c1,0,2.1,0,3.3,0c0,0.2,0,0.5,0,0.7c0,2.4,0,4.7,0,7.1c0,0.4,0,0.7,0.1,1.1
					c0.2,1.5,1.3,2.5,2.7,2.4c1.4-0.1,2.5-1.2,2.5-2.7c0-2.1,0-4.1,0-6.2C76.8,171.5,76.8,170.6,76.8,169.8z"/>
				<path class="st9" d="M115.9,184.2c-1.2,0-2.2,0-3.3,0c0-0.3,0-0.6,0-0.9c0-2.5,0-5.1,0-7.6c0-1.2-0.5-2.1-1.6-2.6
					c-1-0.4-2-0.3-2.8,0.5c-0.6,0.6-0.9,1.3-0.9,2.2c0,2.5,0,5.1,0,7.6c0,0.2,0,0.5,0,0.8c-1.1,0-2.2,0-3.3,0c0-4.8,0-9.5,0-14.3
					c1.2-0.3,3.1-0.1,3.4,0.3c3.4-1.9,7.7,0,8.4,4.5c0.1,0.4,0.1,0.8,0.1,1.1C115.9,178.6,115.9,181.3,115.9,184.2z"/>
				<path class="st9" d="M81.2,173.2c0-1.2,0-2.3,0-3.4c0.6,0,1.1,0,1.7,0c0-1.2,0-2.4,0-3.6c1.1,0,2.2,0,3.3,0c0,1.1,0,2.3,0,3.5
					c1,0,1.8,0,2.8,0c0,1.2,0,2.3,0,3.5c-0.9,0-1.8,0-2.7,0c0,1.5,0,2.9,0,4.2c0,0.5,0,1,0,1.5c0,1.9,0.8,2.5,2.7,1.9
					c0.7,0.9,1.4,1.8,2.1,2.8c-1.8,0.9-3.6,1.3-5.4,0.4c-1.8-0.9-2.6-2.5-2.7-4.4c0-2.1,0-4.2,0-6.4
					C82.4,173.2,81.8,173.2,81.2,173.2z"/>
			</g>
		</g>
	</g>
</g>
</svg>
