<svg id="Layer_1" data-name="Layer 1" xmlns="http://www.w3.org/2000/svg" xmlns:xlink="http://www.w3.org/1999/xlink" viewBox="0 0 648 648"><defs><style>.cls-1,.cls-10,.cls-11,.cls-4,.cls-6,.cls-8{fill:none;}.cls-2,.cls-9{fill:#1e1e1d;}.cls-3{fill:#fff;}.cls-4,.cls-6,.cls-8,.cls-9{stroke:#f36d21;}.cls-10,.cls-11,.cls-4,.cls-6,.cls-8,.cls-9{stroke-miterlimit:10;}.cls-4{stroke-width:3px;}.cls-5{fill:#f36d21;}.cls-6{stroke-width:2px;}.cls-7{clip-path:url(#clip-path);}.cls-11,.cls-9{stroke-width:2.52px;}.cls-10,.cls-11{stroke:#1e1e1d;}.cls-10{stroke-width:2.36px;}</style><clipPath id="clip-path"><path class="cls-1" d="M262.2,86.9H387A101.2,101.2,0,0,1,488.2,188.1v139a26.6,26.6,0,0,1-26.6,26.6H187.7A26.6,26.6,0,0,1,161,327.1v-139A101.2,101.2,0,0,1,262.2,86.9Z"/></clipPath></defs><title>Logo</title><path class="cls-2" d="M188.7,250.1H460.5a0,0,0,0,1,0,0V439.7a66.9,66.9,0,0,1-66.9,66.9H255.7a66.9,66.9,0,0,1-66.9-66.9V250.1A0,0,0,0,1,188.7,250.1Z"/><path class="cls-3" d="M259.4,333H389.9a0,0,0,0,1,0,0v91.1a32.2,32.2,0,0,1-32.2,32.2H291.5a32.2,32.2,0,0,1-32.2-32.2V333A0,0,0,0,1,259.4,333Z"/><path class="cls-4" d="M214.1,274H435.2a0,0,0,0,1,0,0V428.3a54.5,54.5,0,0,1-54.5,54.5H268.5a54.5,54.5,0,0,1-54.5-54.5V274A0,0,0,0,1,214.1,274Z"/><path class="cls-5" d="M227.1,353.7H188.7l59.9,76.6V375.2A21.5,21.5,0,0,0,227.1,353.7Z"/><path class="cls-5" d="M422.1,353.7h38.4l-59.8,76.6V375.2A21.4,21.4,0,0,1,422.1,353.7Z"/><path class="cls-2" d="M262.2,86.9H387A101.2,101.2,0,0,1,488.2,188.1v139a26.6,26.6,0,0,1-26.6,26.6H187.7A26.6,26.6,0,0,1,161,327.1v-139A101.2,101.2,0,0,1,262.2,86.9Z"/><path class="cls-3" d="M270.4,104.3H378.9a88,88,0,0,1,88,88V313.1a23.2,23.2,0,0,1-23.2,23.2H205.6a23.1,23.1,0,0,1-23.1-23.1V192.3A88,88,0,0,1,270.4,104.3Z"/><path class="cls-6" d="M182.4,306.2V218.4A114.1,114.1,0,0,1,296.5,104.3h56.3a114,114,0,0,1,114,114.1v87.8"/><path class="cls-5" d="M368.9,312.6h42A31.1,31.1,0,0,0,421,291H358.8A31.1,31.1,0,0,0,368.9,312.6Z"/><path class="cls-5" d="M236.8,312.6h42A31.1,31.1,0,0,0,288.9,291H226.8A30.6,30.6,0,0,0,236.8,312.6Z"/><path class="cls-5" d="M300.6,383.1,300.4,280h45.9l2.4,103.3a14.1,14.1,0,0,1-14.1,15.8H314.7A14.1,14.1,0,0,1,300.6,383.1Z"/><path class="cls-2" d="M300.6,374.2l8.4-64.5a16.4,16.4,0,0,1,16.2-14.2h0A16.4,16.4,0,0,1,341.5,310l7.2,64.5a14.2,14.2,0,0,1-14.1,15.8H314.7A14.2,14.2,0,0,1,300.6,374.2Z"/><path class="cls-3" d="M304.7,360.6l7-53.3a13.5,13.5,0,0,1,13.4-11.8h0a13.6,13.6,0,0,1,13.5,12l6,53.3a11.8,11.8,0,0,1-11.7,13.1H316.4A11.8,11.8,0,0,1,304.7,360.6Z"/><path class="cls-2" d="M445,278.6H204.3A35.6,35.6,0,0,1,239.9,243H409.4A35.6,35.6,0,0,1,445,278.6Z"/><path class="cls-5" d="M445,278.6H204.3A12.5,12.5,0,0,0,216.8,291H432.5A12.5,12.5,0,0,0,445,278.6Z"/><path class="cls-5" d="M276.3,416.9H373a16.6,16.6,0,0,1-16.6,16.6H292.8a16.5,16.5,0,0,1-16.5-16.6Z"/><path class="cls-5" d="M193.7,265.5c0,34.9-5.1,63.3-11.3,63.3s-11.3-28.4-11.3-63.3,5.1-63.3,11.3-63.3S193.7,230.5,193.7,265.5Z"/><path class="cls-5" d="M478.1,265.5c0,34.9-5,63.3-11.3,63.3s-11.2-28.4-11.2-63.3,5-63.3,11.2-63.3S478.1,230.5,478.1,265.5Z"/><ellipse class="cls-2" cx="466.8" cy="265.5" rx="4.6" ry="25.6"/><path class="cls-2" d="M187,265.5c0,14.1-2.1,25.6-4.6,25.6s-4.6-11.5-4.6-25.6,2.1-25.6,4.6-25.6S187,251.3,187,265.5Z"/><g class="cls-7"><path class="cls-8" d="M338.8,284.8V190.4a81.4,81.4,0,0,1,33.3-65.6l46.2-33.9"/><path class="cls-8" d="M310.4,284.8V190.4a81.3,81.3,0,0,0-33.2-65.6L231,90.9"/></g><path class="cls-9" d="M354.3,205.5a29.7,29.7,0,1,1-29.7-29.7A29.7,29.7,0,0,1,354.3,205.5Z"/><path class="cls-3" d="M343.5,205.5a18.9,18.9,0,1,1-18.9-18.9A18.9,18.9,0,0,1,343.5,205.5Z"/><path class="cls-5" d="M335.2,205.5a10.6,10.6,0,1,1-10.6-10.6A10.6,10.6,0,0,1,335.2,205.5Z"/><line class="cls-4" x1="324.6" y1="390.3" x2="324.6" y2="295.5"/><line class="cls-4" x1="248.6" y1="416.9" x2="404.6" y2="416.9"/><circle class="cls-10" cx="324.6" cy="296.8" r="245.4" transform="translate(-114.8 316.5) rotate(-45)"/><circle class="cls-11" cx="324.6" cy="296.8" r="267.6" transform="translate(-114.8 316.5) rotate(-45)"/><line class="cls-4" x1="570" y1="296.8" x2="511.2" y2="296.8"/><line class="cls-4" x1="79.3" y1="296.8" x2="138" y2="296.8"/><line class="cls-4" x1="325.2" y1="542.1" x2="325.2" y2="483.4"/><line class="cls-4" x1="325.2" y1="51.4" x2="325.2" y2="110.2"/><path class="cls-3" d="M149.6,296.8A11.6,11.6,0,1,1,138,285.1,11.6,11.6,0,0,1,149.6,296.8Z"/><path class="cls-3" d="M522.9,296.8a11.7,11.7,0,1,1-11.7-11.7A11.6,11.6,0,0,1,522.9,296.8Z"/><rect class="cls-3" x="558" y="284.8" width="44.4" height="27.84"/><rect class="cls-3" x="45.6" y="284.8" width="44.4" height="27.84"/><rect class="cls-3" x="301.8" y="541" width="44.4" height="27.84" transform="translate(878.9 230.9) rotate(90)"/><rect class="cls-3" x="301.8" y="28.6" width="44.4" height="27.84" transform="translate(366.5 -281.5) rotate(90)"/><path class="cls-2" d="M80.1,615.3H74.6V570.2h5.5Z"/><path class="cls-2" d="M115,615.4h-5.7V577.8h-15v37.6H88.7V569.9h46.6v45.5h-5.7V577.8H115Z"/><path class="cls-2" d="M142.8,615.3V569.9h46.6v26.5h-41v18.9Zm5.6-26.8h35.3V577.8H148.4Z"/><path class="cls-2" d="M243.5,596.7h-41v10.8h41v7.8H196.9V569.9h46.6v7.9h-41v10.9h41Z"/><path class="cls-2" d="M277,577.8v37.5h-5.6V577.8H251v-7.9h46.6v7.9Z"/><path class="cls-2" d="M305.1,615.3V569.9h5.5v37.6H346V569.9h5.7v45.4Z"/><path class="cls-2" d="M359.2,615.3v-7.8h40.7V596.7H359.2V569.9h46.5v7.9H364.8v10.7h40.9v26.8Z"/><path class="cls-2" d="M443.8,615.3V570.2h5.6v45.1Z"/><path class="cls-2" d="M497.9,615.3V596.4h-41V569.9h46.6v45.4Zm0-37.5H462.6v10.7h35.3Z"/><path class="cls-2" d="M511,607.5h5.6v7.8H511Z"/><path class="cls-2" d="M524.1,615.3V569.9h46.6v45.4ZM565,577.8H529.6v29.7H565Z"/></svg>