<svg id="background" xmlns="http://www.w3.org/2000/svg" viewBox="0 0 773 400"><defs><style>.cls-1,.cls-6{fill:#fff;}.cls-2{fill:#3ababa;}.cls-3{fill:#c8d6a1;}.cls-4{fill:#c0e0f2;}.cls-5{fill:#ebb044;}.cls-6{opacity:0.06;}</style></defs><title>ReachF-04</title><rect class="cls-1" x="81.94" y="107.27" width="3.53" height="108.21" transform="translate(-81.31 237.67) rotate(-87.4)"/><rect class="cls-1" x="96.74" y="46.21" width="3.53" height="130.72" transform="translate(-47.25 81.49) rotate(-36.9)"/><rect class="cls-1" x="612.1" y="2" width="3.53" height="130.9" transform="translate(465.92 667.02) rotate(-82.41)"/><rect class="cls-1" x="182.21" y="147.17" width="3.53" height="186.68" transform="translate(-117.31 210.15) rotate(-46.83)"/><rect class="cls-1" x="632.39" y="22.91" width="3.53" height="203.02" transform="translate(175.27 579.46) rotate(-55.86)"/><rect class="cls-1" x="235.1" y="248.38" width="190.39" height="3.53" transform="matrix(0.82, -0.57, 0.57, 0.82, -83.67, 232.71)"/><rect class="cls-1" x="325.54" y="49.95" width="3.53" height="191.17" transform="translate(31.11 346.97) rotate(-58.19)"/><rect class="cls-1" x="255.73" y="29.87" width="3.53" height="303.44" transform="translate(52.39 420.77) rotate(-84.58)"/><rect class="cls-1" x="376.89" y="125.6" width="200.38" height="3.53" transform="translate(42.04 360.96) rotate(-43.18)"/><rect class="cls-1" x="498.91" y="143.52" width="3.53" height="230.69" transform="translate(10.52 537.14) rotate(-56.92)"/><rect class="cls-1" x="408.45" y="184.77" width="316.78" height="3.53" transform="translate(-5.78 18.59) rotate(-1.87)"/><circle class="cls-2" cx="395.71" cy="181.59" r="95.52"/><circle class="cls-3" cx="242.65" cy="84.44" r="44.75"/><path class="cls-4" d="M85.59,163.84A50.84,50.84,0,0,1,136.44,113c28.08,0,53.48,22.76,53.48,50.85s-25.4,50.85-53.48,50.85A50.85,50.85,0,0,1,85.59,163.84Z"/><circle class="cls-2" cx="258.83" cy="304.37" r="40.13"/><circle class="cls-4" cx="548.99" cy="62.22" r="44.37"/><circle class="cls-4" cx="597.34" cy="316.69" r="48.35"/><circle class="cls-3" cx="718.18" cy="181.39" r="54.82" transform="translate(82.09 560.96) rotate(-45)"/><circle class="cls-5" cx="678.74" cy="76.09" r="27.08"/><circle class="cls-2" cx="61.89" cy="59.3" r="27.08"/><circle class="cls-3" cx="29.65" cy="158.92" r="29.65" transform="translate(-131.83 151.27) rotate(-76.72)"/><circle class="cls-5" cx="112.48" cy="297.32" r="33.11"/><path class="cls-1" d="M465,152.3A75.42,75.42,0,1,0,471,181.59,75,75,0,0,0,465,152.3Zm-105.91,27a74.94,74.94,0,0,1,2-17.25h30.79v35.79H361.38A77.93,77.93,0,0,1,359.13,179.27Zm55.47-49.48a79.52,79.52,0,0,1,12.86,20.58c.57,1.34,1.1,2.7,1.59,4.07H399.49v-38.6A87.11,87.11,0,0,1,414.6,129.79Zm-22.68-13.21v37.86H363.37c.47-1.32,1-2.63,1.52-3.92A79.49,79.49,0,0,1,377.64,130,87.69,87.69,0,0,1,391.92,116.58Zm0,88.8V246a105.07,105.07,0,0,1-14-14.81A93.51,93.51,0,0,1,365,209c-.48-1.19-.93-2.38-1.35-3.58Zm7.57,41.48V205.38h29.3c-.41,1.15-.84,2.3-1.3,3.44A93.31,93.31,0,0,1,414.64,231,105.35,105.35,0,0,1,399.49,246.86Zm0-49.05V162h31.79a74.4,74.4,0,0,1,2,17.25A77.92,77.92,0,0,1,431,197.81ZM439,162h21.48a68.41,68.41,0,0,1,.91,35.79H438.82a85.7,85.7,0,0,0,2-18.54A82.32,82.32,0,0,0,439,162Zm4.52-28.29a67.59,67.59,0,0,1,14.18,20.71H437q-1.14-3.57-2.61-7a87.15,87.15,0,0,0-14.07-22.54,96.53,96.53,0,0,0-8.93-9.13A67.32,67.32,0,0,1,443.56,133.73Zm-95.71,0a67.26,67.26,0,0,1,33.48-18.29,95.92,95.92,0,0,0-9.27,9.43A87.18,87.18,0,0,0,358,147.41c-1,2.31-1.84,4.65-2.6,7h-21.7A67.73,67.73,0,0,1,347.85,133.73Zm-17,28.29h22.48a82.31,82.31,0,0,0-1.81,17.25,85.08,85.08,0,0,0,2,18.54H330a68.41,68.41,0,0,1,.91-35.79Zm17,67.42a67.51,67.51,0,0,1-15.53-24.06h23.33q1,3.23,2.31,6.42a100.9,100.9,0,0,0,14,24,113.52,113.52,0,0,0,11,12.21A67.21,67.21,0,0,1,347.85,229.44Zm95.71,0a67.22,67.22,0,0,1-33.82,18.37,113.39,113.39,0,0,0,10.73-12,101.23,101.23,0,0,0,14-24c.86-2.13,1.62-4.27,2.31-6.42H459.1A67.54,67.54,0,0,1,443.56,229.44Z"/><path class="cls-1" d="M760.18,175.41a20.26,20.26,0,0,0-22.48-8.94h0a9,9,0,0,0-5.77,5.73c-.21.64-1.22.37-1-.28a10,10,0,0,1,6-6.27c-3-9.48-12.17-16.19-22.24-15.44a22.14,22.14,0,0,0-19.87,17.9,13.5,13.5,0,0,1,2.44.83,16.61,16.61,0,0,1,7.34,6.88.53.53,0,0,1-.91.53,16.81,16.81,0,0,0-2-2.74,14.07,14.07,0,0,0-11-4.8,18,18,0,0,0-11.74,5.59,17.41,17.41,0,0,0-4.63,13.28A17.08,17.08,0,0,0,681,199.8a21.25,21.25,0,0,0,12.16,4c2.89.12,5.8.16,8.7.2,8.29.11,16.58.14,24.87.16l10.92,0c3,0,6.14.24,9.09-.33,9.64-1.85,16.93-10.69,16-20.65A18.77,18.77,0,0,0,760.18,175.41Z"/><path class="cls-1" d="M155,176.88a8.73,8.73,0,0,0-9.16,1.7l-16.5-9.36a12.43,12.43,0,0,0-.51-9.52l15.58-10.3a10.51,10.51,0,0,0,3.45,2.27,10.4,10.4,0,1,0-6.06-6.63l-16,10.6a12.52,12.52,0,1,0,.84,18.06l16.65,9.45A8.7,8.7,0,1,0,155,176.88Z"/><circle class="cls-1" cx="596.48" cy="336.8" r="9.64" transform="translate(131.65 839.95) rotate(-76.72)"/><path class="cls-6" d="M603.6,331.59a10.42,10.42,0,0,1,.42,3.87,9.45,9.45,0,0,1-2.28,5.52,10.11,10.11,0,0,1-5.17,3.07,10.51,10.51,0,0,1-3,.27h-.1a6.62,6.62,0,0,0,1.56.88c3.81,1.5,8.24-.7,9.92-4.92A8.31,8.31,0,0,0,603.6,331.59Z"/><path class="cls-1" d="M614.49,331c-7.69-6.87-16-9-24.76-6.28a31.07,31.07,0,0,0-11.1,6.21l-5-5A38.46,38.46,0,0,1,587.58,318c7.8-2.41,19.63-3,31.72,7.78Z"/><path class="cls-1" d="M622.56,323.35c-6.18-5.55-12.74-9-19.49-10.24a34.24,34.24,0,0,0-16.46,1.13,45.12,45.12,0,0,0-16.06,9l-5-5a51.87,51.87,0,0,1,18.87-10.69,41.28,41.28,0,0,1,19.93-1.34c8.09,1.48,15.82,5.51,23,12Z"/><path class="cls-1" d="M630.59,315.69c-8-7.2-16.55-11.69-25.34-13.34a44.73,44.73,0,0,0-21.49,1.37,59.32,59.32,0,0,0-21.24,11.91l-5-5a65.71,65.71,0,0,1,23.8-13.48,52,52,0,0,1,25.07-1.68c10.17,1.87,19.93,6.95,29,15.09Z"/><path class="cls-1" d="M277,280.67a8.38,8.38,0,0,0-8.28-.25l-1.73.94-9,4.86q-3.38,1.81-6.74,3.64a8.38,8.38,0,0,0-4.17,5.2,8.69,8.69,0,0,0,.82,6.28l-3.64,2-6.75,3.63a8.4,8.4,0,0,0-4.17,5.21,8.76,8.76,0,0,0,.93,6.47l2.36,4.37a19,19,0,0,0,2.36,3.86,8.35,8.35,0,0,0,8,2.48A12,12,0,0,0,250,328l16.15-8.72.45-.24a8.38,8.38,0,0,0,4.35-7.3,9.35,9.35,0,0,0-1.13-4.11l.74-.4,9.33-5,.45-.24a8.36,8.36,0,0,0,4.34-7.3,10.82,10.82,0,0,0-1.64-5.13l-2.53-4.68A10.19,10.19,0,0,0,277,280.67Zm-6,2.79Zm-13.64,17.05h0l.64-.17.33-.06.09,0h.08c.27,0,.54,0,.81,0l.32,0,.17,0a7.26,7.26,0,0,1,1,.32h0l.06,0c.14.08.29.15.43.24s.61.46.46.31a6.88,6.88,0,0,1,.54.54l.22.26s.16.23.19.28c.62,1,1.15,2.1,1.71,3.15.12.21.23.43.35.65l-.34.18-.18.1L261.37,308l-.44.24-.53.25c.08,0-.47.15-.59.17l-.48.1h-.09a9.38,9.38,0,0,1-1.06,0h-.13l-.35-.08c-.26-.07-.51-.16-.77-.25l-.07,0-.08-.05-.28-.16-.42-.26-.18-.13,0,0a7.86,7.86,0,0,1-.64-.65l-.11-.13-.19-.29-.27-.47-1.79-3.32,2.88-1.55.82-.44.12-.07Zm-.1,0Zm9.33,8.87a2.12,2.12,0,0,1,.11.21c.08.15.15.31.23.47l0,.05v0a10,10,0,0,1,.25,1.05.43.43,0,0,1,0,.12c0,.13,0,.25,0,.38s0,.44,0,.65c0,0,0,.28-.05.32a2.81,2.81,0,0,1-.08.31,4.26,4.26,0,0,1-.15.47l-.07.18,0,.05a7.23,7.23,0,0,1-.45.76l-.1.14s-.19.22-.22.25a8.09,8.09,0,0,1-.61.56l-.07.06-.07,0-.45.26-14.3,7.71L247.64,325l-.45.24-.53.26a4.89,4.89,0,0,0-.58.17c-.16,0-.33.06-.49.09l-.07,0h0c-.35,0-.7,0-1.05,0l-.14,0-.35-.08a6.75,6.75,0,0,1-.76-.25l-.08,0-.08-.05-.28-.16-.41-.26-.18-.14h0a6.53,6.53,0,0,1-.64-.65,1.34,1.34,0,0,1-.11-.14l-.2-.28c-.09-.15-.18-.31-.26-.47l-2.09-3.87c-.55-1-1.14-2.05-1.67-3.1-.05-.1-.09-.21-.14-.31a.56.56,0,0,0,0-.08.51.51,0,0,0,0-.09c-.07-.27-.15-.53-.2-.8,0,0,0-.34-.05-.33V314s.05-.44.05-.46c0-.22.1-.44.16-.66s.09-.25.14-.38l.06-.15c.12-.21.23-.43.37-.63a3,3,0,0,1,.2-.29l.26-.29a7.76,7.76,0,0,1,.61-.55l.09-.06.45-.27.1,0,.79-.43,3.32-1.79,6.28-3.39,0,.07h0l.11.21h0c.17.33.35.66.53,1a19.12,19.12,0,0,0,2.37,3.87,8.35,8.35,0,0,0,8,2.48,12.69,12.69,0,0,0,3.05-1.32l2.48-1.34.34-.18Zm11.62-21q1,2,2.12,3.93a2.12,2.12,0,0,0,.11.21l.23.47,0,.05v0a8,8,0,0,1,.26,1.05.83.83,0,0,0,0,.13c0,.12,0,.25,0,.37s0,.44,0,.66c0,0,0,.28-.05.32s-.05.2-.08.31l-.15.46-.08.18,0,.05a8.57,8.57,0,0,1-.45.77,1.71,1.71,0,0,0-.11.14l-.21.24a8.22,8.22,0,0,1-.61.57l-.07.06-.08,0-.44.26L268.75,304l-.72.39-1.29-2.4a10.43,10.43,0,0,0-3.52-4.21,8.42,8.42,0,0,0-8.29-.24c-.58.3-1.15.62-1.73.93l-2.09,1.13c-.06-.12-.13-.24-.19-.37l-.15-.31,0-.08s0-.05,0-.08c-.07-.27-.15-.54-.2-.81,0,0,0-.34,0-.33s0-.17,0-.25,0-.27,0-.41,0-.44,0-.46c.05-.22.1-.44.17-.65s.09-.26.13-.38a.66.66,0,0,1,.07-.15,6.6,6.6,0,0,1,.36-.64l.2-.29s.22-.24.27-.29a6.31,6.31,0,0,1,.61-.55l.09-.06.44-.26.11-.06.79-.42,3.31-1.79,9.09-4.9,3.36-1.82.82-.44.12-.06a6.36,6.36,0,0,1,.59-.28l0,0,.65-.17.32-.05.09,0h.08a7.48,7.48,0,0,1,.82,0l.31,0,.17,0a5.56,5.56,0,0,1,1,.32h0l.06,0,.42.24c.11.06.62.46.46.32a6.88,6.88,0,0,1,.55.53l.22.27s.16.22.19.28C277.05,286.26,277.57,287.34,278.14,288.39Z"/><path class="cls-1" d="M255.94,57.64a12,12,0,0,0-6-4.32,15.53,15.53,0,0,0-4.89-.53h-4.65A13.15,13.15,0,0,0,234.54,54,11.93,11.93,0,0,0,228,64.8V89.39h3.7V64.68a7.54,7.54,0,0,1,.42-2.61,8.87,8.87,0,0,1,1.36-2.51,8,8,0,0,1,2.31-2,8.13,8.13,0,0,1,2.93-1,5.48,5.48,0,0,1,.61-.05,4.7,4.7,0,0,1,.56,0h6.51a7.84,7.84,0,0,1,2.64.42,9.16,9.16,0,0,1,2.51,1.37,8,8,0,0,1,2,2.3,8.2,8.2,0,0,1,1,2.93,5.48,5.48,0,0,1,0,.61,4.61,4.61,0,0,1,0,.55V89.39h3.7V64.68A11.69,11.69,0,0,0,255.94,57.64Z"/><path class="cls-1" d="M223.75,80.15V107a6.56,6.56,0,0,0,6.56,6.56H255a6.56,6.56,0,0,0,6.56-6.56V80.15Zm20.16,17.18v6.46c0,.48-.55.87-1.24.87h0c-.69,0-1.25-.39-1.25-.87V97.33a5,5,0,1,1,2.52,0Z"/><path class="cls-1" d="M553.3,36.12l-.57-2.66c-.92-.12-1.85-.2-2.79-.23s-1.87,0-2.8,0l-.75,2.62a4,4,0,0,1-6.72,1.57l-1.83-2a29.13,29.13,0,0,0-4.92,2.64l.66,2.65a4,4,0,0,1-5,4.71L526,44.6a27.81,27.81,0,0,0-3,4.74l1.9,2a4,4,0,0,1-2,6.6l-2.66.58c-.12.92-.2,1.85-.23,2.79s0,1.87,0,2.8l2.62.74a4,4,0,0,1,1.57,6.72l-2,1.84a29.51,29.51,0,0,0,2.64,4.92l2.64-.66a3.94,3.94,0,0,1,4.72,5l-.83,2.6a28.7,28.7,0,0,0,4.74,3l2-1.9a3.94,3.94,0,0,1,6.6,2l.58,2.66c.92.12,1.85.19,2.79.22a25.94,25.94,0,0,0,2.79,0l.75-2.61A4,4,0,0,1,558.3,87l1.84,2a28.85,28.85,0,0,0,4.92-2.65l-.66-2.64a3.94,3.94,0,0,1,5-4.71l2.6.83a29.12,29.12,0,0,0,3-4.74l-1.91-2a4,4,0,0,1,2-6.61l2.66-.57c.12-.92.19-1.85.22-2.79s0-1.87,0-2.8l-2.62-.75a3.94,3.94,0,0,1-1.56-6.71l2-1.84a28.48,28.48,0,0,0-2.65-4.92l-2.64.66a4,4,0,0,1-4.72-5l.84-2.59a28.87,28.87,0,0,0-4.74-3l-2,1.9A4,4,0,0,1,553.3,36.12Zm7.55,26.49a11.87,11.87,0,1,1-11.47-12.26A11.88,11.88,0,0,1,560.85,62.61Z"/><path class="cls-1" d="M134.16,294.78c0-8.44-9.71-15.29-21.68-15.29s-21.67,6.85-21.67,15.29c0,5.34,3.88,10,9.75,12.78L112.67,321l-2-11c.61,0,1.22.05,1.83.05C124.45,310.08,134.16,303.23,134.16,294.78Zm-30.76,2.38a1.48,1.48,0,0,1,0-3A1.48,1.48,0,0,1,103.4,297.16Zm19.21-3a1.48,1.48,0,0,1,0,3A1.48,1.48,0,0,1,122.61,294.21Zm-9.08,0a1.48,1.48,0,0,1,0,3A1.48,1.48,0,0,1,113.53,294.21Z"/></svg>